<?xml version="1.0" encoding="UTF-8" standalone="no"?>
<svg
   xmlns:dc="http://purl.org/dc/elements/1.1/"
   xmlns:cc="http://creativecommons.org/ns#"
   xmlns:rdf="http://www.w3.org/1999/02/22-rdf-syntax-ns#"
   xmlns:svg="http://www.w3.org/2000/svg"
   xmlns="http://www.w3.org/2000/svg"
   xmlns:sodipodi="http://sodipodi.sourceforge.net/DTD/sodipodi-0.dtd"
   xmlns:inkscape="http://www.inkscape.org/namespaces/inkscape"
   height="10mm"
   width="3.3mm"
   version="1.1"
   viewBox="0 0 3.3858044 7.9349004"
   id="svg4"
   sodipodi:docname="3.3x10mm.svg"
   inkscape:version="0.92.1 r15371">
  <metadata
     id="metadata10">
    <rdf:RDF>
      <cc:Work
         rdf:about="">
        <dc:format>image/svg+xml</dc:format>
        <dc:type
           rdf:resource="http://purl.org/dc/dcmitype/StillImage" />
        <dc:title />
      </cc:Work>
    </rdf:RDF>
  </metadata>
  <defs
     id="defs8" />
  <sodipodi:namedview
     pagecolor="#ffffff"
     bordercolor="#666666"
     borderopacity="1"
     objecttolerance="10"
     gridtolerance="10"
     guidetolerance="10"
     inkscape:pageopacity="0"
     inkscape:pageshadow="2"
     inkscape:window-width="1185"
     inkscape:window-height="806"
     id="namedview6"
     showgrid="false"
     inkscape:zoom="12.488333"
     inkscape:cx="-7.8168962"
     inkscape:cy="18.897638"
     inkscape:window-x="0"
     inkscape:window-y="0"
     inkscape:window-maximized="0"
     inkscape:current-layer="svg4" />
  <path
     d="M 0.04436046,0.45152822 -0.20761348,0.97677217 0.19721074,1.0834284 V 1.2162446 L -0.17536785,1.5895518 0.19721074,1.799849 v 0.088949 l -0.41437133,0.5332916 0.41437133,0.1901781 v 0.1630099 l -0.3427318,0.4044993 0.46333646,0.2233772 v 0.066108 l -0.52304209,0.4698988 0.60425284,0.1952004 v 0.017809 L -0.24463266,4.721686 0.38708021,4.8484714 v 0.045783 L -0.24224588,5.5925627 H 0.50529809 V 5.80286 l -0.91830715,0.4941527 0.93981227,0.053329 V 6.5022783 L -0.15626157,7.0758182 H 0.58889562 V 7.2086343 L 0.07182047,7.8214145 H 0.62830158 V 8.060897 l -0.77740281,0.4417221 0.5755874,0.03552 c 0,0 0.10460962,0.0062 0.20181541,0.03552 0.0483636,0.014691 0.091832,0.03552 0.11117689,0.050814 0.0193449,0.015294 0.009269,0.00403 0.009269,-0.00255 v 0.053329 l 0.0254361,0.043167 C 0.94022187,8.9910175 1.2124111,9.1600379 1.4966547,9.1600379 V 8.813899 c -0.1898695,0 -0.3558591,-0.103641 -0.462143,-0.2726815 l 0.025436,0.093979 c 0,-0.1217531 -0.0699788,-0.2223686 -0.13852955,-0.2767053 0,-0.040249 -0.0238835,-0.040249 -0.0358246,-0.050311 l 0.081084,-0.045782 V 7.4705136 H 0.81382783 L 0.92500471,7.3376974 V 6.7279331 h -0.133744 l 0.0716504,-0.060976 V 6.0169442 l -0.0439457,-0.00255 0.0231674,-0.012679 V 5.2339824 H 0.52687313 L 0.72988193,5.038782 V 4.57089 L 0.50893612,4.5106841 0.71791187,4.3194772 0.76568359,3.8767567 0.47788386,3.7861957 0.65820621,3.6151583 V 3.1623631 L 0.41579145,3.0426572 0.53997628,2.8957224 V 2.3674631 L 0.32861377,2.2709682 0.5399763,1.9992951 V 1.5726598 L 0.39905991,1.4946784 0.5399763,1.3517978 V 0.7953617 L 0.28561558,0.72925415 0.57222193,0.12955445 H 0.36324617 l -0.069501,-0.97501373 H 2.9806795 L 2.9135677,0.12955445 H 2.7165258 L 2.9661009,0.71315888 2.7189125,0.78168174 V 1.3361008 L 2.8622157,1.4779731 2.7189125,1.5592743 V 1.9859096 L 2.9278883,2.2525504 2.7033864,2.3516623 V 2.8849539 L 2.8466896,3.041923 2.6102417,3.1586439 v 0.4497799 l 0.1803224,0.1630098 -0.2937667,0.093979 0.048602,0.4417221 0.194655,0.1811221 -0.2268886,0.045782 v 0.4719166 l 0.1922567,0.216338 h -0.312873 v 0.7677419 l 0.023168,0.012679 -0.043945,0.00255 V 6.6552737 L 2.4434235,6.71625 H 2.3228048 V 7.3310415 L 2.4362504,7.4638577 H 2.2834001 v 0.7918847 l 0.081084,0.045782 c -0.021017,0.012074 -0.042035,0.014288 -0.062456,0.030388 -0.069022,0.054738 -0.1385296,0.1549521 -0.1385296,0.2767053 l 0.027705,-0.096496 C 2.1195541,8.6731149 1.95237,8.7737405 1.773241,8.7737405 v 0.3461388 c 0.2842076,0 0.5576745,-0.1559605 0.7224707,-0.4165707 l 0.027705,-0.045783 v -0.050814 c 0,0.00656 -0.0123,0.015395 0.00695,0 0.019238,-0.015395 0.065081,-0.036123 0.1134455,-0.050814 0.096728,-0.029381 0.2018154,-0.03552 0.2018154,-0.03552 L 3.4188265,8.487375 2.6414236,8.0426275 V 7.803145 H 3.1979048 L 2.6832109,7.1933806 V 7.0565407 H 3.4116486 L 2.7285838,6.4830008 V 6.331064 L 3.6683961,6.2777348 2.7524637,5.7746269 V 5.5643296 H 3.5000076 L 2.8706815,4.8660212 V 4.8202385 L 3.4988384,4.7037596 2.8946698,4.1312484 2.8828561,4.1182391 3.4989584,3.9229984 2.9651879,3.4420566 V 3.3785651 L 3.4392769,3.1571948 3.0714719,2.740624 V 2.5846633 L 3.4977892,2.4025429 3.0834179,1.8561713 V 1.7647067 L 3.4559965,1.5564163 3.0834179,1.1831091 V 1.048276 L 3.4631693,0.9446352 3.2494079,0.4636632 3.3679886,-1.1865043 H 4.6060031e-4 Z"
     id="path2"
     style="fill:#ffffff;stroke-width:1.10256958"
     inkscape:connector-curvature="0" />
</svg>
