<?xml version="1.0" encoding="UTF-8" standalone="no"?>
<svg
   xmlns:dc="http://purl.org/dc/elements/1.1/"
   xmlns:cc="http://creativecommons.org/ns#"
   xmlns:rdf="http://www.w3.org/1999/02/22-rdf-syntax-ns#"
   xmlns:svg="http://www.w3.org/2000/svg"
   xmlns="http://www.w3.org/2000/svg"
   xmlns:sodipodi="http://sodipodi.sourceforge.net/DTD/sodipodi-0.dtd"
   xmlns:inkscape="http://www.inkscape.org/namespaces/inkscape"
   height="11.5mm"
   width="3.3mm"
   version="1.1"
   viewBox="0 0 3.300444 11.506236"
   id="svg4"
   sodipodi:docname="3.3x11.5mm.svg"
   inkscape:version="0.92.1 r15371">
  <metadata
     id="metadata10">
    <rdf:RDF>
      <cc:Work
         rdf:about="">
        <dc:format>image/svg+xml</dc:format>
        <dc:type
           rdf:resource="http://purl.org/dc/dcmitype/StillImage" />
        <dc:title></dc:title>
      </cc:Work>
    </rdf:RDF>
  </metadata>
  <defs
     id="defs8" />
  <sodipodi:namedview
     pagecolor="#ffffff"
     bordercolor="#666666"
     borderopacity="1"
     objecttolerance="10"
     gridtolerance="10"
     guidetolerance="10"
     inkscape:pageopacity="0"
     inkscape:pageshadow="2"
     inkscape:window-width="1501"
     inkscape:window-height="911"
     id="namedview6"
     showgrid="false"
     fit-margin-top="0"
     fit-margin-left="0"
     fit-margin-right="0"
     fit-margin-bottom="0"
     inkscape:document-units="mm"
     inkscape:showpageshadow="true"
     inkscape:zoom="1.9917597"
     inkscape:cx="-108.30902"
     inkscape:cy="40.331765"
     inkscape:window-x="0"
     inkscape:window-y="0"
     inkscape:window-maximized="0"
     inkscape:current-layer="svg4" />
  <path
     style="color:#000000;text-indent:0;text-decoration:none;text-decoration-line:none;text-decoration-style:solid;text-decoration-color:#000000;text-transform:none;white-space:normal;isolation:auto;mix-blend-mode:normal;solid-color:#000000;fill:#ffffff;stroke-width:0.17892084;color-rendering:auto;image-rendering:auto;shape-rendering:auto"
     d="m -0.05163528,0.01584136 0.12283204,1.80430474 -0.25263363,0.5750993 0.39201811,0.0983 v 0.207624 l -0.34323404,0.3729877 0.34323404,0.22416 v 0.1517674 l -0.3815647,0.5548881 0.40769913,0.2039488 V 4.425732 l -0.33626451,0.4409707 0.43731832,0.2370217 v 0.1260441 l -0.50004147,0.5071163 0.58889814,0.1780418 -0.006495,0.069269 -0.60457914,0.5806113 0.62200208,0.1502974 v 0.079007 l -0.60283667,0.771699 H 0.56299913 V 7.8487665 L -0.28375934,8.381606 0.58739162,8.429011 V 8.6311226 L -0.04506357,9.2264329 H 0.63617601 V 9.4094358 L 0.14310498,10.070891 h 0.51920635 v 0.286631 l -0.67775571,0.474044 0.47913285,0.0272 c 0,0 0.10471269,0.0074 0.2003648,0.03766 0.0480903,0.01515 0.0911227,0.03693 0.1106358,0.0531 0.0195122,0.01618 0.0136036,0.01023 0.0136036,0.01435 v 0.04226 l 0.018989,0.03693 c 0.15105751,0.295818 0.43034883,0.46302 0.72305503,0.496092 l 0.00821,7.17e-4 h 0.2334678 c 0.2979339,0 0.5610218,-0.200275 0.7108597,-0.461182 l 0.022823,-0.04024 v -0.04666 c 0,-0.0167 -8.21e-5,-0.017 0.019684,-0.03509 0.019863,-0.01817 0.061152,-0.04115 0.1081974,-0.05732 L 2.8426549,10.862633 3.367088,10.832863 2.6422901,10.382706 V 10.074008 H 3.1858863 L 2.6928154,9.4125579 V 9.2295552 H 3.3740549 L 2.7416057,8.6342447 V 8.4321333 L 3.6127567,8.3847288 2.7659982,7.8518893 V 7.568933 h 0.738736 L 2.8914435,6.8211204 V 6.7160224 L 3.475115,6.56646 2.9088665,5.9895234 2.9037246,5.9375256 3.4804265,5.7280645 2.9908402,5.23381 V 5.107766 L 3.4368691,4.865232 3.0657587,4.4242614 V 4.2166378 L 3.5083037,4.0108514 3.0901513,3.4522887 V 3.3087896 L 3.4734579,3.0809547 3.0901513,2.7024549 V 2.498506 L 3.4751998,2.401676 3.2452158,1.8265767 h 0.011565 l 0.087115,-1.83737758 h -3.39748911 z m 0.3414912,0.33440268 H 3.0078473 L 2.9500054,1.4857434 H 2.7618369 l 0.2700565,0.676155 -0.2648299,0.06633 v 0.6136838 l 0.167435,0.1657314 -0.167435,0.099402 V 3.5627151 L 3.0005324,3.8750692 2.7426711,3.9952342 V 4.5482849 L 2.9221282,4.7614206 2.6677526,4.8999589 V 5.372165 l 0.2108182,0.2131357 -0.3240683,0.1177765 0.044599,0.4372959 0.2352107,0.238859 -0.2665719,0.068167 v 0.4942548 l 0.236953,0.2866309 H 2.4440372 v 0.8066088 l 0.1041895,0.065595 -0.1292784,0.00719 V 8.7764801 L 2.5374241,8.8880092 H 2.3689437 V 9.5219045 L 2.5257511,9.7313657 H 2.3184168 v 0.8341693 l 0.1142955,0.07111 c -0.037463,0.01984 -0.075441,0.03032 -0.1106366,0.06247 -0.069344,0.06357 -0.1285819,0.168671 -0.1285819,0.288468 l 0.022823,-0.08691 c -0.099486,0.173455 -0.2874803,0.301336 -0.4390602,0.301336 H 1.5664381 C 1.3591038,11.165254 1.1883582,11.055013 1.0890473,10.871274 l 0.018989,0.07938 c 0,-0.118332 -0.065158,-0.218649 -0.13468007,-0.277445 -0.0379779,-0.03161 -0.0782292,-0.04207 -0.11812765,-0.06063 l 0.12753644,-0.08929 V 9.7203371 H 0.80156501 L 0.95837695,9.510876 V 8.8769808 H 0.78989649 L 0.90837325,8.7654517 V 8.0966465 L 0.77909397,8.0894587 0.88328345,8.0238642 V 7.2172591 H 0.51043112 L 0.75783804,6.9012303 V 6.4345364 L 0.48081193,6.3674716 0.72647692,6.1304499 0.77002978,5.654569 0.45815776,5.5601277 0.65852256,5.3580162 V 4.8858107 L 0.39543461,4.742679 0.55851427,4.5295432 V 3.9838421 L 0.3145921,3.8614727 0.53237984,3.5454437 V 3.098961 L 0.374876,2.9958837 0.53237984,2.8242728 V 2.216101 L 0.2745186,2.151058 0.57245244,1.4730658 H 0.37208765 L 0.29490852,0.33756615 Z"
     id="path2"
     inkscape:connector-curvature="0" />
</svg>
