<?xml version="1.0" encoding="UTF-8" standalone="no"?>
<svg
   xmlns:dc="http://purl.org/dc/elements/1.1/"
   xmlns:cc="http://creativecommons.org/ns#"
   xmlns:rdf="http://www.w3.org/1999/02/22-rdf-syntax-ns#"
   xmlns:svg="http://www.w3.org/2000/svg"
   xmlns="http://www.w3.org/2000/svg"
   xmlns:sodipodi="http://sodipodi.sourceforge.net/DTD/sodipodi-0.dtd"
   xmlns:inkscape="http://www.inkscape.org/namespaces/inkscape"
   height="16mm"
   width="3.75mm"
   version="1.1"
   viewBox="0 0 3.7503298 15.944065"
   id="svg4"
   sodipodi:docname="3.75x16mm.svg"
   inkscape:version="0.92.1 r15371">
  <metadata
     id="metadata10">
    <rdf:RDF>
      <cc:Work
         rdf:about="">
        <dc:format>image/svg+xml</dc:format>
        <dc:type
           rdf:resource="http://purl.org/dc/dcmitype/StillImage" />
        <dc:title></dc:title>
      </cc:Work>
    </rdf:RDF>
  </metadata>
  <defs
     id="defs8" />
  <sodipodi:namedview
     pagecolor="#ffffff"
     bordercolor="#666666"
     borderopacity="1"
     objecttolerance="10"
     gridtolerance="10"
     guidetolerance="10"
     inkscape:pageopacity="0"
     inkscape:pageshadow="2"
     inkscape:window-width="1294"
     inkscape:window-height="807"
     id="namedview6"
     showgrid="false"
     inkscape:zoom="10.153116"
     inkscape:cx="6.4440947"
     inkscape:cy="35.035575"
     inkscape:window-x="0"
     inkscape:window-y="0"
     inkscape:window-maximized="0"
     inkscape:current-layer="svg4" />
  <path
     style="color:#000000;text-indent:0;text-decoration:none;text-decoration-line:none;text-decoration-style:solid;text-decoration-color:#000000;text-transform:none;white-space:normal;isolation:auto;mix-blend-mode:normal;solid-color:#000000;fill:#ffffff;stroke-width:1.25537109;color-rendering:auto;image-rendering:auto;shape-rendering:auto"
     d="M 0.05868858,-0.02633267 0.18174825,2.3902427 h 0.0141157 L -0.07559124,3.1831406 0.34425941,3.3333602 V 3.6873558 L -0.01888728,4.1876522 0.34425941,4.465885 V 4.7336676 L -0.06111363,5.4782341 0.3744211,5.7407917 V 6.123525 L 0.01127441,6.6852155 0.47697082,7.0117798 V 7.2586623 L -0.01285494,7.8726031 0.58796582,8.146917 0.57348822,8.3167302 -0.00802907,9.0612966 0.59520463,9.2298037 V 9.4466424 L -0.01768081,10.39629 h 0.74439038 v 0.505522 l -0.83125603,0.627003 0.85779832,0.06884 v 0.403634 l -0.63098245,0.736729 h 0.68527348 v 0.361833 L 0.33098827,13.91104 h 0.52963919 v 0.55124 l -0.68286055,0.538179 0.43070886,0.03828 c 0,0 0.11509699,0.01124 0.22199,0.05617 0.0532052,0.02246 0.10025747,0.05212 0.12667907,0.08164 0.027025,0.02952 0.037642,0.0482 0.037642,0.09183 v 0.03566 l 0.011787,0.03318 c 0.1375373,0.353996 0.441567,0.599573 0.7938555,0.642679 l 0.036194,-0.391877 c -0.2412934,0 -0.4463929,-0.261252 -0.5308456,-0.391877 l 0.011787,0.06636 c 0,-0.135851 -0.056583,-0.25472 -0.129092,-0.334402 -0.062254,-0.06831 -0.1327112,-0.107631 -0.20268628,-0.139766 L 1.183647,14.632874 V 13.561743 H 0.91460484 L 1.129356,13.197297 V 12.386112 H 0.85790084 L 1.0750649,12.134005 v -0.86213 L 0.81326155,11.251497 1.0485226,11.07254 V 10.044516 H 0.59851035 L 0.91943064,9.5468324 V 8.9550979 L 0.55869693,8.7852845 0.88323665,8.3672823 0.92425654,7.8447798 0.51405763,7.6619039 0.796371,7.3000706 V 6.7357677 L 0.46459247,6.513704 0.69140834,6.1688521 V 5.4726172 L 0.38013975,5.2832099 0.66245312,4.7633197 V 4.2225293 L 0.43805019,4.0396533 0.66245312,3.7392142 v -0.72236 L 0.33550046,2.8969398 0.65400785,1.9760286 H 0.48148301 L 0.39425542,0.25176944 H 3.4707472 L 3.3835196,1.9760286 H 3.2001366 L 3.5162311,2.8995523 3.1904849,3.0168542 v 0.72236 L 3.4148878,4.0474908 3.1904849,4.2186106 V 4.7594009 L 3.4727982,5.2792911 3.1615296,5.4686984 v 0.696235 L 3.3883455,6.5097852 3.056567,6.7318489 v 0.5669155 l 0.2895522,0.3788145 -0.410199,0.182876 0.048259,0.5225025 0.3257462,0.4180022 -0.3619405,0.1045006 V 9.4971945 L 3.2689052,9.9948784 H 2.81648 v 1.0384736 l 0.2412934,0.169814 -0.2412934,0.02613 v 0.859517 l 0.2147512,0.25472 H 2.7537437 v 0.808573 l 0.2147512,0.364446 H 2.6994526 v 1.073743 l 0.2026866,0.158057 c -0.070096,0.03331 -0.1435697,0.07184 -0.2075124,0.139769 -0.072509,0.07851 -0.1290921,0.197245 -0.1290921,0.33179 l 0.011787,-0.06636 c -0.092657,0.239045 -0.2967909,0.40494 -0.534465,0.433678 l 0.037642,0.344852 c 0.3522884,-0.04337 0.6551118,-0.291296 0.7914426,-0.645292 l 0.014116,-0.03057 v -0.03566 c 0,-0.03827 0.00789,-0.05696 0.035349,-0.08673 0.027459,-0.02979 0.075646,-0.06074 0.129092,-0.08412 0.1078582,-0.04676 0.224403,-0.06126 0.224403,-0.06126 h 0.410199 L 3.0215432,14.465934 v -0.55124 H 3.5499759 L 3.0758343,13.103508 V 12.739063 H 3.7538689 L 3.1385706,11.994497 v -0.40494 L 4.0072271,11.524244 3.1385706,10.897242 V 10.386493 H 3.880548 L 3.2676626,9.4368455 V 9.2200068 L 3.8708963,9.0514997 3.2797273,8.3069333 3.2676626,8.1371201 3.8708963,7.8628062 3.36418,7.2358028 V 6.9902265 L 3.8334958,6.6767248 3.4703491,6.1228719 V 5.7401386 L 3.9034709,5.4775809 3.4980978,4.7330145 V 4.4652318 L 3.8612445,4.1869991 3.4980978,3.6867027 V 3.3327071 L 3.9203614,3.1824875 3.6489063,2.3895896 h 0.025939 L 3.7954921,-0.0269858 H 0.05544318 Z"
     id="path2"
     inkscape:connector-curvature="0" />
</svg>
