<?xml version="1.0" encoding="UTF-8" standalone="no"?>
<svg
   xmlns:dc="http://purl.org/dc/elements/1.1/"
   xmlns:cc="http://creativecommons.org/ns#"
   xmlns:rdf="http://www.w3.org/1999/02/22-rdf-syntax-ns#"
   xmlns:svg="http://www.w3.org/2000/svg"
   xmlns="http://www.w3.org/2000/svg"
   xmlns:sodipodi="http://sodipodi.sourceforge.net/DTD/sodipodi-0.dtd"
   xmlns:inkscape="http://www.inkscape.org/namespaces/inkscape"
   height="13mm"
   width="3.75mm"
   version="1.1"
   viewBox="0 0 3.7472183 12.998564"
   id="svg4"
   sodipodi:docname="3.75x13mm.svg"
   inkscape:version="0.92.1 r15371">
  <metadata
     id="metadata10">
    <rdf:RDF>
      <cc:Work
         rdf:about="">
        <dc:format>image/svg+xml</dc:format>
        <dc:type
           rdf:resource="http://purl.org/dc/dcmitype/StillImage" />
        <dc:title></dc:title>
      </cc:Work>
    </rdf:RDF>
  </metadata>
  <defs
     id="defs8" />
  <sodipodi:namedview
     pagecolor="#ffffff"
     bordercolor="#666666"
     borderopacity="1"
     objecttolerance="10"
     gridtolerance="10"
     guidetolerance="10"
     inkscape:pageopacity="0"
     inkscape:pageshadow="2"
     inkscape:window-width="1081"
     inkscape:window-height="680"
     id="namedview6"
     showgrid="false"
     inkscape:zoom="12.538487"
     inkscape:cx="6.8787404"
     inkscape:cy="16.278275"
     inkscape:window-x="0"
     inkscape:window-y="0"
     inkscape:window-maximized="0"
     inkscape:current-layer="svg4" />
  <path
     style="color:#000000;text-indent:0;text-decoration:none;text-decoration-line:none;text-decoration-style:solid;text-decoration-color:#000000;text-transform:none;white-space:normal;isolation:auto;mix-blend-mode:normal;solid-color:#000000;fill:#ffffff;stroke-width:1.25286734;color-rendering:auto;image-rendering:auto;shape-rendering:auto"
     d="M -0.02078036,-0.00753466 0.10969346,2.0119196 h 0.00468 l -0.27531147,0.6346857 0.44887782,0.1306088 v 0.2307948 l -0.40219453,0.4432308 0.40219453,0.2465309 v 0.169162 L -0.15614994,4.504241 0.31666803,4.732413 v 0.2557101 l -0.39980052,0.486505 0.50992521,0.2714461 v 0.1429354 l -0.56139653,0.5533829 0.65715714,0.2334176 -0.007014,0.087072 -0.64279305,0.6609122 0.66433919,0.1481809 V 7.6949786 L -0.13802725,8.517185 h 0.81157111 v 0.3461922 l -0.94204493,0.5638735 0.96837909,0.063993 v 0.2662011 l -0.71341649,0.6556662 h 0.76728183 v 0.241286 l -0.52788031,0.712054 h 0.59610973 v 0.376353 l -0.78523692,0.494373 0.5254863,0.0358 c 0,0 0.11970076,0.01023 0.23341647,0.04865 0.0568579,0.01914 0.10916708,0.04617 0.13526181,0.06911 0.0264535,0.02308 0.0257353,0.02728 0.0257353,0.04091 v 0.04615 l 0.0233418,0.0409 c 0.17117206,0.314721 0.47640906,0.512732 0.81157116,0.521911 l 0.00934,-0.346191 C 1.5734573,12.668187 1.369966,12.537056 1.2502653,12.327242 l 0.023342,0.08969 c 0,-0.132444 -0.069187,-0.246529 -0.1448379,-0.312096 -0.045606,-0.03974 -0.09612,-0.05402 -0.14483785,-0.07685 L 1.135956,11.93071 V 11.003605 H 0.89296729 L 1.0701245,10.764943 V 10.052889 H 0.85466304 L 1.0162591,9.9047075 V 9.1520018 L 0.83910201,9.1391502 0.9887279,9.049455 V 8.152503 H 0.56977528 L 0.84987507,7.8089336 V 7.2712867 L 0.52907702,7.1926066 0.8115708,6.8909997 0.86064812,6.4058062 0.47999971,6.2615595 0.73735633,6.0124061 V 5.4944291 L 0.42852839,5.3305124 0.62962565,5.0866043 V 4.4689659 L 0.3351618,4.3378326 0.60089747,3.9575457 V 3.4684181 L 0.39980021,3.3372848 0.60089747,3.1143579 V 2.474427 L 0.28249347,2.3822402 0.60927652,1.6295346 H 0.3986032 L 0.31205956,0.29197389 H 3.4960996 L 3.4095559,1.6295346 H 3.1988826 L 3.5256657,2.3822402 3.2096556,2.4744272 V 3.1143579 L 3.4083589,3.3346621 3.2096556,3.4550425 V 3.9441701 L 3.4741944,4.3257683 3.1797305,4.466081 v 0.6176383 l 0.2010973,0.2439082 -0.308828,0.1639166 v 0.510109 L 3.3293565,6.2521178 2.948708,6.3884967 2.9977853,6.8854921 3.2802792,7.175297 2.9618752,7.247027 V 7.7846739 L 3.2419749,8.1282433 H 2.8254162 v 0.8969525 l 0.149626,0.089695 -0.1771571,0.012812 v 0.7527054 l 0.161596,0.1481808 H 2.7416258 v 0.712055 l 0.177157,0.238662 H 2.6877604 v 0.929736 l 0.1544139,0.0973 c -0.04788,0.05245 -0.095761,0.06556 -0.1436409,0.104906 -0.071821,0.06556 -0.1436409,0.183588 -0.1436409,0.314721 l 0.023342,-0.08707 c -0.1197007,0.222926 -0.323192,0.354059 -0.5506235,0.354059 l 0.00702,0.348815 c 0.3351621,-0.01311 0.6344139,-0.209814 0.8139651,-0.524533 l 0.023342,-0.04091 v -0.04865 c 0,-0.01364 -6.787e-4,-0.01535 0.025735,-0.03842 0.026415,-0.02308 0.076369,-0.04996 0.1328679,-0.06911 0.1137157,-0.03843 0.2358104,-0.04864 0.2358104,-0.04864 L 3.7918329,12.2357 3.0065959,11.741327 V 11.359725 H 3.590735 L 3.0604607,10.64767 V 10.409008 H 3.8277424 L 3.1143261,9.7507176 V 9.4871394 L 4.0827051,9.4205236 3.1430541,8.8514049 V 8.5052127 H 3.9546253 L 3.2795131,7.6830063 V 7.5626258 L 3.9438523,7.4118225 3.3034532,6.7509101 3.2941046,6.6638376 3.9536557,6.43042 3.3922592,5.8796598 V 5.7419697 L 3.8997904,5.4705236 3.4999898,4.9840188 V 4.7283086 L 3.9728078,4.5001365 3.528718,3.8628282 V 3.6936661 L 3.9309126,3.4471354 3.528718,3.0039044 V 2.7731096 L 3.9775959,2.6425008 3.7034811,2.0078151 h 0.00468 L 3.8278622,0.00147421 h -3.85436425 z"
     id="path2"
     inkscape:connector-curvature="0" />
</svg>
