<?xml version="1.0" encoding="UTF-8" standalone="no"?>
<svg
   xmlns:dc="http://purl.org/dc/elements/1.1/"
   xmlns:cc="http://creativecommons.org/ns#"
   xmlns:rdf="http://www.w3.org/1999/02/22-rdf-syntax-ns#"
   xmlns:svg="http://www.w3.org/2000/svg"
   xmlns="http://www.w3.org/2000/svg"
   xmlns:sodipodi="http://sodipodi.sourceforge.net/DTD/sodipodi-0.dtd"
   xmlns:inkscape="http://www.inkscape.org/namespaces/inkscape"
   height="16mm"
   width="4.1999998mm"
   version="1.1"
   viewBox="0 0 4.2001185 15.978842"
   id="svg4"
   sodipodi:docname="4.2x16mm.svg"
   inkscape:version="0.92.1 r15371">
  <metadata
     id="metadata10">
    <rdf:RDF>
      <cc:Work
         rdf:about="">
        <dc:format>image/svg+xml</dc:format>
        <dc:type
           rdf:resource="http://purl.org/dc/dcmitype/StillImage" />
        <dc:title></dc:title>
      </cc:Work>
    </rdf:RDF>
  </metadata>
  <defs
     id="defs8" />
  <sodipodi:namedview
     pagecolor="#ffffff"
     bordercolor="#666666"
     borderopacity="1"
     objecttolerance="10"
     gridtolerance="10"
     guidetolerance="10"
     inkscape:pageopacity="0"
     inkscape:pageshadow="2"
     inkscape:window-width="1248"
     inkscape:window-height="813"
     id="namedview6"
     showgrid="false"
     inkscape:zoom="10.320936"
     inkscape:cx="6.6897637"
     inkscape:cy="34.492995"
     inkscape:window-x="0"
     inkscape:window-y="0"
     inkscape:window-maximized="0"
     inkscape:current-layer="svg4" />
  <path
     style="color:#000000;text-indent:0;text-decoration:none;text-decoration-line:none;text-decoration-style:solid;text-decoration-color:#000000;text-transform:none;white-space:normal;isolation:auto;mix-blend-mode:normal;solid-color:#000000;fill:#ffffff;stroke-width:1.23356259;color-rendering:auto;image-rendering:auto;shape-rendering:auto"
     d="M -0.03814233,-0.07633782 0.10456943,2.3499342 h 0.0316751 l -0.3109492,0.8039485 0.48498794,0.1534453 v 0.3436126 l -0.42117374,0.5180418 0.42117374,0.2872182 v 0.2583652 l -0.47338536,0.760669 0.50355207,0.2688572 v 0.373777 l -0.41885322,0.5718133 0.5418406,0.3252516 v 0.2308238 l -0.58941119,0.6426342 0.70079598,0.2767263 -0.0113357,0.1508223 -0.6775908,0.773784 0.70079597,0.1744293 V 9.4713705 L -0.11990573,10.43401 h 0.86091161 v 0.502304 L -0.22897,11.581571 0.76769182,11.65331 v 0.397384 l -0.73212294,0.750177 h 0.79361663 v 0.360663 l -0.55112266,0.824932 h 0.6137766 v 0.583617 l -0.79593714,0.553452 0.4803469,0.0358 c 0,0 0.13923099,0.01062 0.26917991,0.05889 0.0652065,0.02413 0.12530789,0.05954 0.15895538,0.0922 0.03388,0.03266 0.043046,0.04853 0.043046,0.08446 v 0.04354 l 0.0181,0.04092 C 1.24305,15.85181 1.5806852,16.091814 1.9542883,16.11411 h 0.00454 0.2691799 0.0068 v -0.08708 l 0.00226,0.08708 c 0.3736031,-0.02256 0.710078,-0.263611 0.8887578,-0.634765 l 0.0181,-0.04092 v -0.04354 c 0,-0.02885 0.0062,-0.04407 0.040841,-0.07685 0.034576,-0.03279 0.095025,-0.06689 0.1612759,-0.0922 0.1322694,-0.05062 0.2715004,-0.06662 0.2715004,-0.06662 L 4.070042,15.290358 3.292669,14.634609 V 14.086402 H 3.9041251 L 3.3530024,13.26147 V 12.900808 H 4.1489396 L 3.4144961,12.150631 V 11.750624 L 4.4111579,11.681508 3.441182,11.033627 v -0.49968 H 4.3113757 L 3.6047785,9.5686837 V 9.361467 L 4.312536,9.2434321 3.6279836,8.4565331 3.6047785,8.3122683 4.312536,8.0237385 3.7208043,7.3811043 V 7.1476576 L 4.2649654,6.822406 3.8345096,6.2440352 V 5.8650122 L 4.3380617,5.593532 3.8669968,4.8328629 V 4.5744977 L 4.2881706,4.2872796 3.8669968,3.7692377 V 3.4256252 L 4.3496642,3.2721799 4.0433561,2.4577394 h 0.033996 L 4.2200634,0.03146734 H -0.03808432 Z M 0.29137101,0.26989775 H 3.8997741 L 3.7977874,2.0010756 H 3.5866204 L 3.9381787,2.936174 3.566896,3.0539465 V 3.7962546 L 3.8163515,4.1005222 3.566896,4.2697055 V 4.8310268 L 3.8882876,5.3464457 3.5367293,5.536613 V 6.2618716 L 3.7954669,6.6107301 3.4241843,6.8336849 V 7.4199246 L 3.7502168,7.7753407 3.2907546,7.957639 3.3383252,8.5005994 3.7072873,8.9202789 3.310479,9.0175921 V 9.6300618 L 3.6713193,10.121874 H 3.1480428 v 1.047887 l 0.2587376,0.171806 -0.2854235,0.02046 v 0.878704 l 0.2424939,0.247873 H 3.0598632 v 0.824932 l 0.2401734,0.360662 H 2.9983695 v 1.091167 l 0.2181285,0.150822 c -0.076345,0.03226 -0.1543143,0.06977 -0.2239298,0.136396 -0.080522,0.07646 -0.1519938,0.198036 -0.1519938,0.343613 l 0.020421,-0.08197 c -0.139231,0.39345 -0.3828852,0.524599 -0.6497446,0.655749 H 1.9594743 C 1.7042175,15.838826 1.4605632,15.707677 1.3329348,15.445377 l 0.0181,0.08197 c 0,-0.145576 -0.068339,-0.270168 -0.1496734,-0.348858 C 1.1325582,15.112256 1.055169,15.076715 0.97975222,15.044714 L 1.1885987,14.913564 V 13.78961 H 0.88693156 L 1.127105,13.428948 V 12.604016 H 0.82079684 L 1.0656113,12.353519 V 11.474815 L 0.7801878,11.454356 1.0389254,11.28255 V 10.237286 H 0.52493099 L 0.8857713,9.7428507 V 9.133004 L 0.48664247,9.0330678 0.84864304,8.6212573 0.89621363,8.0782968 0.43675137,7.8959986 0.76278393,7.5405825 V 6.9543427 L 0.39034104,6.731388 0.63979656,6.3903984 V 5.6730088 L 0.28939857,5.489399 0.60846958,4.9779146 V 4.4139703 l -0.247135,-0.1704947 0.247135,-0.3016447 V 3.1942768 L 0.23950747,3.076242 0.596867,2.1581931 H 0.38337949 L 0.28243702,0.41390027 Z"
     id="path2"
     inkscape:connector-curvature="0" />
</svg>
