<?xml version="1.0" encoding="UTF-8" standalone="no"?>
<svg
   xmlns:dc="http://purl.org/dc/elements/1.1/"
   xmlns:cc="http://creativecommons.org/ns#"
   xmlns:rdf="http://www.w3.org/1999/02/22-rdf-syntax-ns#"
   xmlns:svg="http://www.w3.org/2000/svg"
   xmlns="http://www.w3.org/2000/svg"
   xmlns:sodipodi="http://sodipodi.sourceforge.net/DTD/sodipodi-0.dtd"
   xmlns:inkscape="http://www.inkscape.org/namespaces/inkscape"
   height="8mm"
   width="4.1999998mm"
   version="1.1"
   viewBox="0 0 4.1949472 8.0023154"
   id="svg4"
   sodipodi:docname="4.2x8mm.svg"
   inkscape:version="0.92.1 r15371">
  <metadata
     id="metadata10">
    <rdf:RDF>
      <cc:Work
         rdf:about="">
        <dc:format>image/svg+xml</dc:format>
        <dc:type
           rdf:resource="http://purl.org/dc/dcmitype/StillImage" />
        <dc:title></dc:title>
      </cc:Work>
    </rdf:RDF>
  </metadata>
  <defs
     id="defs8" />
  <sodipodi:namedview
     pagecolor="#ffffff"
     bordercolor="#666666"
     borderopacity="1"
     objecttolerance="10"
     gridtolerance="10"
     guidetolerance="10"
     inkscape:pageopacity="0"
     inkscape:pageshadow="2"
     inkscape:window-width="1177"
     inkscape:window-height="802"
     id="namedview6"
     showgrid="false"
     inkscape:zoom="14.197083"
     inkscape:cx="7.5401575"
     inkscape:cy="11.75433"
     inkscape:window-x="0"
     inkscape:window-y="0"
     inkscape:window-maximized="0"
     inkscape:current-layer="svg4" />
  <path
     style="color:#000000;text-indent:0;text-decoration:none;text-decoration-line:none;text-decoration-style:solid;text-decoration-color:#000000;text-transform:none;white-space:normal;isolation:auto;mix-blend-mode:normal;solid-color:#000000;fill:#ffffff;stroke-width:1.2422905;color-rendering:auto;image-rendering:auto;shape-rendering:auto"
     d="M 0.02877334,0.04609201 0.17617621,1.3235811 -0.1725574,1.7833228 0.37990374,1.8688321 v 0.020089 l -0.54766755,0.342553 0.53568359,0.1867298 -0.57523069,0.4648928 0.61597619,0.1609739 v 0.040179 L -0.13061349,3.4448313 0.49494989,3.638 -0.24206443,4.0372154 0.54168738,4.1917503 -0.24446123,4.6424774 0.59561525,4.7326228 -0.26363559,5.299251 h 1.0294233 v 0.077911 l -0.47696216,0.160974 0.0421836,0.3322502 0.47935896,0.015068 v 0.037732 l -0.38109035,0.1957442 0.0678293,0.3245234 h 0.3738999 v 0.025112 l -0.7298239,0.5460235 h 0.7909422 V 7.115166 L 0.59777237,7.2310672 0.63731947,7.565893 c 0,0 0.14260924,0.0098 0.27802814,0.037732 0.067829,0.013909 0.13422059,0.0358 0.16897399,0.0528 v 0.027688 l 0.056204,0.050352 c 0.2360842,0.2150612 0.5404771,0.3258113 0.8496637,0.3064944 h 0.2360842 0.00935 0.011704 v -0.00754 c 0.3019999,0.012371 0.598004,-0.089247 0.8280963,-0.2987716 l 0.056204,-0.050352 v -0.030134 c 0.032956,-0.015968 0.09719,-0.035414 0.1641805,-0.047777 0.1330221,-0.024597 0.2720362,-0.027688 0.2720362,-0.027688 L 3.6123167,7.2438677 3.2779638,7.1306708 V 7.0250719 h 0.793339 L 3.3390822,6.4790484 V 6.4539364 H 3.7129821 L 3.784886,6.1319885 3.4013988,5.9259419 V 5.8882096 L 3.8807577,5.8731424 3.9229413,5.5408923 3.4459792,5.3799183 v -0.080487 h 1.067772 L 3.659294,4.7353787 4.4861881,4.6323553 3.6952458,4.1816283 4.4861881,4.0270934 3.7431817,3.627878 4.3783323,3.4475871 3.8270695,3.0741276 V 3.0339485 L 4.4502361,2.8665356 3.8750054,2.4029307 4.4023002,2.209762 3.8630214,1.8749362 V 1.8498242 L 4.3783323,1.7468009 4.0427811,1.2960739 4.1865887,0.02116037 H 0.01616621 Z M 0.38709413,0.38606896 H 3.8384783 L 3.7611816,1.0673107 H 3.4495984 l 0.3559239,0.4726194 -0.250465,0.04533 v 0.5086776 l 0.086644,0.0528 -0.086644,0.030134 V 2.5838138 L 3.734817,2.7293342 3.5262957,2.7847092 v 0.4906485 l 0.093594,0.06542 -0.2229019,0.067866 v 0.432698 l 0.1100125,0.060397 -0.250465,0.047777 0.067829,0.4249712 0.1193604,0.067866 -0.1665772,0.020089 v 0.4455758 l 0.114687,0.075465 H 3.1269898 v 0.5962474 l -0.04446,0.00251 v 0.5460236 h -0.058482 v 0.5460236 l 0.03739,0.027687 H 2.963169 v 0.6863948 c -0.025167,0.015196 -0.050932,0.026786 -0.0749,0.0528 -0.010869,0.011809 -0.011422,0.036831 -0.021092,0.0528 -0.1725694,0.1558242 -0.3930745,0.2343794 -0.6183732,0.2215015 -0.00154,-8.59e-5 -0.00315,9.45e-5 -0.00469,0 h -0.00703 -0.2600523 -0.00469 C 1.7446625,7.7412256 1.5169671,7.6510802 1.3491914,7.4965453 1.3394125,7.4809629 1.3388852,7.4552071 1.3280996,7.4437458 1.3020944,7.416187 1.2757296,7.401635 1.2485261,7.3859239 V 6.6969555 h -0.095992 l 0.03739,-0.027687 V 6.1232445 H 1.1290458 V 5.5772208 l -0.044461,-0.00251 V 4.9784622 H 0.85808821 l 0.1146866,-0.075465 V 4.4574218 l -0.1617836,-0.02009 0.1146866,-0.06542 0.0702262,-0.4275468 -0.2528619,-0.047777 0.1100128,-0.060397 V 3.4034932 l -0.22050506,-0.06542 0.0935948,-0.06542 V 2.7794294 L 0.51762355,2.7240544 0.69738315,2.578534 V 2.1741675 l -0.0889211,-0.030134 0.0889211,-0.055375 V 1.5786927 L 0.42534697,1.535938 0.77647741,1.0710452 H 0.46489408 L 0.3853205,0.38980356 Z"
     id="path2"
     inkscape:connector-curvature="0" />
</svg>
