<?xml version="1.0" encoding="UTF-8" standalone="no"?>
<svg
   xmlns:dc="http://purl.org/dc/elements/1.1/"
   xmlns:cc="http://creativecommons.org/ns#"
   xmlns:rdf="http://www.w3.org/1999/02/22-rdf-syntax-ns#"
   xmlns:svg="http://www.w3.org/2000/svg"
   xmlns="http://www.w3.org/2000/svg"
   xmlns:sodipodi="http://sodipodi.sourceforge.net/DTD/sodipodi-0.dtd"
   xmlns:inkscape="http://www.inkscape.org/namespaces/inkscape"
   height="10mm"
   width="5mm"
   version="1.1"
   viewBox="0 0 5.0015333 9.9944738"
   id="svg4"
   sodipodi:docname="5x10mm.svg"
   inkscape:version="0.92.1 r15371">
  <metadata
     id="metadata10">
    <rdf:RDF>
      <cc:Work
         rdf:about="">
        <dc:format>image/svg+xml</dc:format>
        <dc:type
           rdf:resource="http://purl.org/dc/dcmitype/StillImage" />
        <dc:title></dc:title>
      </cc:Work>
    </rdf:RDF>
  </metadata>
  <defs
     id="defs8" />
  <sodipodi:namedview
     pagecolor="#ffffff"
     bordercolor="#666666"
     borderopacity="1"
     objecttolerance="10"
     gridtolerance="10"
     guidetolerance="10"
     inkscape:pageopacity="0"
     inkscape:pageshadow="2"
     inkscape:window-width="1223"
     inkscape:window-height="906"
     id="namedview6"
     showgrid="false"
     inkscape:zoom="16.432018"
     inkscape:cx="8.012598"
     inkscape:cy="16.796477"
     inkscape:window-x="0"
     inkscape:window-y="0"
     inkscape:window-maximized="0"
     inkscape:current-layer="svg4" />
  <path
     style="color:#000000;text-indent:0;text-decoration:none;text-decoration-line:none;text-decoration-style:solid;text-decoration-color:#000000;text-transform:none;white-space:normal;isolation:auto;mix-blend-mode:normal;solid-color:#000000;fill:#ffffff;stroke-width:1.21335685;color-rendering:auto;image-rendering:auto;shape-rendering:auto"
     d="M -0.02189078,-0.01720703 0.15345347,1.5525564 -0.24453184,2.0885732 0.39801255,2.1957766 v 0.092271 L -0.23068887,2.6824028 0.39801255,2.899362 V 2.941733 L -0.26875703,3.4930644 0.43377355,3.684499 V 3.7966797 L -0.18800639,4.2280456 0.57797113,4.462872 V 4.490311 L -0.2826,4.9765553 l 0.95055042,0.193987 -0.94132178,0.558989 0.99092574,0.1301754 -0.99784722,0.7006506 h 1.18818802 v 0.1799485 l -0.61601204,0.2169592 0.0403753,0.3318199 0.6125513,0.01991 v 0.11971 L 0.45107726,7.6903317 0.51636992,8.0119418 H 1.0170239 V 8.1141679 L 0.21297823,8.7318635 H 1.0920066 v 0.2093018 l -0.43951416,0.1569763 0.0427978,0.3292675 c 0,0 0.17303709,0.00786 0.34030636,0.039818 0.083634,0.015953 0.164962,0.03918 0.2122588,0.06228 0.016035,0.008 0.01938,0.013273 0.024802,0.017485 v 0.039818 l 0.051796,0.052326 C 1.608234,9.9071446 1.9762262,10.041149 2.3499863,10.015624 h 0.2930095 v 0.0026 c 0.00247,1.72e-4 0.00429,-0.0027 0.00676,-0.0026 h 0.017996 v -0.0075 c 0.00493,2.42e-4 0.00859,-0.0052 0.013497,-0.0049 v 0.01251 l 0.015804,-0.0025 -0.00225,-0.014932 c 0.3529956,0.0092 0.701377,-0.1017155 0.9713148,-0.3560683 l 0.054103,-0.049901 v -0.04237 c 0.00585,-0.00444 0.00781,-0.0076 0.022495,-0.014931 0.046374,-0.023102 0.1280475,-0.048754 0.2122589,-0.064835 C 4.1222437,9.4381294 4.297588,9.4327692 4.297588,9.4327692 L 4.338194,9.1035018 3.9009869,8.943973 V 8.7372236 H 4.7800154 L 3.9736625,8.1195281 V 8.0148772 H 4.4766237 L 4.5419163,7.6932671 4.0481838,7.4316398 V 7.3144819 L 4.6711174,7.276195 4.7172606,6.9443751 4.0943271,6.7274159 V 6.5474673 h 1.188188 L 4.2615962,5.836607 V 5.829127 L 5.2640578,5.6989528 4.3181217,5.1399638 5.2732864,4.9485292 4.4104081,4.4622854 V 4.4423762 L 5.1763857,4.2101022 4.5546057,3.7787363 V 3.6665557 L 5.2594435,3.4751211 4.5903667,2.9237896 V 2.8814187 L 5.2213753,2.6644595 4.5903667,2.2701043 V 2.175408 L 5.2375254,2.0682046 4.8314651,1.5296354 5.0045021,-0.02736583 h -5.01807557 z m 0.3449206,0.3394773 H 4.6489571 L 4.5430584,1.2641283 h -0.335692 l 0.4372071,0.57558 -0.3691458,0.06228 v 0.5806849 l 0.1684227,0.1072033 -0.1684227,0.057303 v 0.4581668 l 0.272245,0.227169 -0.3091596,0.084742 V 3.9800749 L 4.4138573,4.1022102 4.0943155,4.1994588 V 4.6805977 L 4.3192637,4.8077102 3.9247392,4.887475 4.0036442,5.3558517 4.251664,5.5026181 3.9448116,5.5424362 V 6.036337 L 4.2124422,6.2226666 H 3.772928 v 0.752976 l -0.038299,0.00249 v 0.6585349 l 0.056295,0.029864 H 3.6628764 v 0.620248 L 3.7955381,8.3890042 H 3.5878936 v 0.792539 l 0.063101,0.022462 c -0.012459,0.00535 -0.026186,0.00642 -0.038299,0.012469 -0.044644,0.022334 -0.088826,0.050539 -0.1280474,0.094696 -0.013382,0.014931 -0.013497,0.04454 -0.024802,0.064832 C 3.2383587,9.5840281 2.9522707,9.688679 2.662722,9.6695355 H 2.3316444 2.3248844 C 2.0595608,9.6567732 1.7711657,9.5546748 1.5519854,9.3504779 1.5404496,9.3249533 1.5404496,9.2994286 1.517378,9.2739041 1.4827705,9.2356172 1.4366273,9.2100925 1.3904841,9.1845679 c -0.013266,-0.00665 -0.02907,-0.00665 -0.042798,-0.012469 l 0.065293,-0.024887 V 8.357226 H 1.2030272 L 1.3403033,8.2525751 V 7.6348796 H 1.2053344 l 0.060794,-0.032416 v -0.658535 l -0.035992,-0.00249 V 6.1884637 H 0.78831502 L 1.0501778,6.0034102 V 5.5248239 L 0.75255402,5.486537 0.99826668,5.3461516 1.074403,4.8739464 0.67987844,4.7973724 0.90482666,4.6702599 V 4.1763587 L 0.58759199,4.07911 0.76293624,3.9569747 V 3.394157 L 0.45377664,3.3094154 0.72602166,3.0847988 V 2.626632 L 0.55529173,2.5667768 0.72602166,2.4595734 V 1.8788886 L 0.35226155,1.8166086 0.78023995,1.2384761 H 0.45146948 L 0.34649365,0.31065658 Z"
     id="path2"
     inkscape:connector-curvature="0" />
</svg>
