<?xml version="1.0" encoding="UTF-8" standalone="no"?>
<svg
   xmlns:dc="http://purl.org/dc/elements/1.1/"
   xmlns:cc="http://creativecommons.org/ns#"
   xmlns:rdf="http://www.w3.org/1999/02/22-rdf-syntax-ns#"
   xmlns:svg="http://www.w3.org/2000/svg"
   xmlns="http://www.w3.org/2000/svg"
   xmlns:sodipodi="http://sodipodi.sourceforge.net/DTD/sodipodi-0.dtd"
   xmlns:inkscape="http://www.inkscape.org/namespaces/inkscape"
   height="11.5mm"
   width="5mm"
   version="1.1"
   viewBox="0 0 4.9966451 11.501281"
   id="svg4"
   sodipodi:docname="5x11.5mm.svg"
   inkscape:version="0.92.1 r15371">
  <metadata
     id="metadata10">
    <rdf:RDF>
      <cc:Work
         rdf:about="">
        <dc:format>image/svg+xml</dc:format>
        <dc:type
           rdf:resource="http://purl.org/dc/dcmitype/StillImage" />
        <dc:title></dc:title>
      </cc:Work>
    </rdf:RDF>
  </metadata>
  <defs
     id="defs8" />
  <sodipodi:namedview
     pagecolor="#ffffff"
     bordercolor="#666666"
     borderopacity="1"
     objecttolerance="10"
     gridtolerance="10"
     guidetolerance="10"
     inkscape:pageopacity="0"
     inkscape:pageshadow="2"
     inkscape:window-width="1047"
     inkscape:window-height="805"
     id="namedview6"
     showgrid="false"
     inkscape:zoom="13.906831"
     inkscape:cx="8.7307084"
     inkscape:cy="17.301928"
     inkscape:window-x="0"
     inkscape:window-y="0"
     inkscape:window-maximized="0"
     inkscape:current-layer="svg4" />
  <path
     style="color:#000000;text-indent:0;text-decoration:none;text-decoration-line:none;text-decoration-style:solid;text-decoration-color:#000000;text-transform:none;white-space:normal;isolation:auto;mix-blend-mode:normal;solid-color:#000000;fill:#ffffff;stroke-width:1.2228384;color-rendering:auto;image-rendering:auto;shape-rendering:auto"
     d="m 0.01706728,0.05250125 0.17358961,1.78485965 -0.3776747,0.5826292 0.61108236,0.114486 v 0.1517131 l -0.57706818,0.4207169 0.57706818,0.2345816 v 0.092175 l -0.62281139,0.600478 0.65799847,0.2090836 V 4.4178856 L -0.11077914,4.8806742 0.60117287,5.136929 v 0.067187 l -0.80695713,0.5074104 0.93128483,0.2294819 -0.004692,0.025498 -0.93011193,0.6119519 0.94184096,0.1389641 v 0.054821 L -0.19288272,7.5371831 H 0.91551046 V 7.793438 l -0.6134282,0.2460556 0.048089,0.3289242 0.6005262,0.022438 V 8.5769911 L 0.46042453,8.8663933 0.53607677,9.1825685 H 1.0263501 V 9.35468 L 0.28155685,10.017627 H 1.0967243 v 0.311076 l -0.43749274,0.182311 0.0504348,0.326374 c 0,0 0.16889803,0.0087 0.33193154,0.04488 0.081634,0.0181 0.1595147,0.04437 0.204085,0.06974 0.043749,0.02537 0.029792,0.02626 0.029792,0.005 v 0.06719 l 0.045861,0.04985 c 0.2697676,0.280478 0.6333675,0.446215 1.0204254,0.420717 h 0.3248941 l 0.035188,-0.01275 h -0.046917 c 0.3753289,0.0255 0.7506578,-0.140239 1.0086964,-0.433466 l 0.043515,-0.04985 v -0.06719 c 0,0.02129 -0.014074,0.0204 0.029792,-0.005 0.043749,-0.02537 0.1219819,-0.05163 0.204085,-0.06974 0.1630335,-0.03608 0.3342774,-0.04488 0.3342774,-0.04488 L 4.3233804,10.485515 3.8882335,10.305754 V 10.012527 H 4.703401 L 3.9586072,9.3495804 V 9.1800187 H 4.4488805 L 4.522187,8.8638435 4.0319136,8.5718915 V 8.387031 L 4.6347856,8.3621705 4.6828747,8.0357961 4.0671006,7.7897405 V 7.5334856 H 5.1754938 L 4.2500736,6.765996 V 6.7111753 L 5.1766668,6.5709363 4.2852606,5.9334864 4.2735315,5.9079884 5.2118538,5.6912555 4.4025509,5.1812955 V 5.1141083 L 5.1145029,4.8578535 4.5444722,4.3950649 V 4.2204036 L 5.2024706,4.01132 4.5796592,3.4108422 V 3.318667 L 5.1590732,3.0840854 4.5796592,2.6633685 V 2.5116554 L 5.1895687,2.3969144 4.8142398,1.8104605 4.9901752,0.02560086 H 0.01706728 Z M 0.36307361,0.38907479 H 4.6324399 L 4.5224215,1.5250105 H 4.2198126 L 4.6432306,2.180309 4.2585184,2.2524683 V 2.8695198 L 4.4672951,3.0212329 4.2585184,3.1058862 V 3.5865234 L 4.5681648,3.8823002 4.2245043,3.9918141 V 4.5871923 L 4.4426642,4.7644033 4.082583,4.8944431 v 0.5048603 l 0.266249,0.1670119 -0.4304554,0.09957 0.070961,0.4882866 0.3119922,0.2218325 -0.3659458,0.054821 V 6.9484341 L 4.2497217,7.2072388 H 3.7524108 v 0.8286848 l 0.082456,0.032382 -0.1168211,0.00498 v 0.712669 L 3.830292,8.8531416 H 3.6426276 V 9.5199142 L 3.830292,9.6869257 H 3.5710801 v 0.8618323 l 0.1255006,0.05227 c -0.037298,0.01415 -0.07706,0.01951 -0.1122468,0.03978 -0.090665,0.0524 -0.1923561,0.151713 -0.1923561,0.300877 l 0.043515,-0.117036 C 3.2126414,11.041382 2.9311447,11.156123 2.637919,11.143374 l -0.025218,-0.0024 -0.022872,0.0075 H 2.587541 2.2966611 2.292074 C 1.9988482,11.173974 1.7173517,11.046482 1.5062291,10.817 l 0.043515,0.119586 c 0,-0.149163 -0.1041537,-0.251155 -0.1947019,-0.303426 C 1.3204412,10.61314 1.2818532,10.60741 1.245024,10.59338 L 1.3681789,10.54353 V 9.6625806 H 1.1089694 L 1.2966339,9.4955691 V 8.8287965 H 1.1066236 L 1.2234447,8.7590595 V 8.0489404 L 1.1066236,8.0439555 1.1890787,8.011573 V 7.1828882 H 0.68942208 L 1.0061058,6.9215337 V 6.4039244 L 0.65775371,6.3516535 0.96740002,6.1451198 1.0383607,5.6542834 0.61025114,5.5547137 0.87650011,5.3877018 V 4.8828415 L 0.51641892,4.7528017 0.73457884,4.5755907 V 3.9802125 L 0.39091832,3.8706986 0.70056465,3.5749218 V 3.0942846 L 0.48944215,3.0096313 0.70056465,2.8579182 V 2.2408667 L 0.31350673,2.1687074 0.73927045,1.5134089 H 0.43666153 L 0.32664324,0.3774732 Z"
     id="path2"
     inkscape:connector-curvature="0" />
</svg>
