<?xml version="1.0" encoding="UTF-8" standalone="no"?>
<svg
   xmlns:dc="http://purl.org/dc/elements/1.1/"
   xmlns:cc="http://creativecommons.org/ns#"
   xmlns:rdf="http://www.w3.org/1999/02/22-rdf-syntax-ns#"
   xmlns:svg="http://www.w3.org/2000/svg"
   xmlns="http://www.w3.org/2000/svg"
   xmlns:sodipodi="http://sodipodi.sourceforge.net/DTD/sodipodi-0.dtd"
   xmlns:inkscape="http://www.inkscape.org/namespaces/inkscape"
   height="13mm"
   width="5mm"
   version="1.1"
   viewBox="0 0 4.9959676 12.997381"
   id="svg4"
   sodipodi:docname="5x13mm.svg"
   inkscape:version="0.92.1 r15371">
  <metadata
     id="metadata10">
    <rdf:RDF>
      <cc:Work
         rdf:about="">
        <dc:format>image/svg+xml</dc:format>
        <dc:type
           rdf:resource="http://purl.org/dc/dcmitype/StillImage" />
        <dc:title></dc:title>
      </cc:Work>
    </rdf:RDF>
  </metadata>
  <defs
     id="defs8" />
  <sodipodi:namedview
     pagecolor="#ffffff"
     bordercolor="#666666"
     borderopacity="1"
     objecttolerance="10"
     gridtolerance="10"
     guidetolerance="10"
     inkscape:pageopacity="0"
     inkscape:pageshadow="2"
     inkscape:window-width="1335"
     inkscape:window-height="874"
     id="namedview6"
     showgrid="false"
     inkscape:zoom="12.576368"
     inkscape:cx="8.2015751"
     inkscape:cy="25.126492"
     inkscape:window-x="0"
     inkscape:window-y="0"
     inkscape:window-maximized="0"
     inkscape:current-layer="svg4" />
  <path
     style="color:#000000;text-indent:0;text-decoration:none;text-decoration-line:none;text-decoration-style:solid;text-decoration-color:#000000;text-transform:none;white-space:normal;isolation:auto;mix-blend-mode:normal;solid-color:#000000;fill:#ffffff;stroke-width:1.19949567;color-rendering:auto;image-rendering:auto;shape-rendering:auto"
     d="M -0.02791104,0.06342624 0.14861009,2.047007 -0.22027382,2.6700548 0.39189242,2.7997505 v 0.3000801 l -0.5567205,0.4666501 0.5567205,0.2454046 V 3.9606538 L -0.2248,4.6116752 0.42697034,4.8380068 v 0.2263317 l -0.5567205,0.4971667 0.70495299,0.2759211 v 0.1266441 l -0.77963501,0.5582 0.90863122,0.2339608 -0.006631,0.057091 -0.89278957,0.6650082 0.91768358,0.1513115 V 7.738866 l -0.91881513,0.821406 h 1.08288926 v 0.3280536 l -0.6359287,0.2924506 0.0508064,0.3229677 0.6234817,0.032297 V 9.7789023 L -0.07652239,10.437553 H 0.9848675 v 0.218703 L 0.25728374,11.367039 H 1.0550235 v 0.359842 l -0.45261831,0.205987 0.0486565,0.325511 c 0,0 0.17199495,0.0072 0.33833217,0.04972 0.0828292,0.02124 0.16520564,0.05429 0.21046744,0.08443 0.045262,0.03014 0.03983,0.03433 0.03983,0.0323 v 0.0646 l 0.037567,0.04972 c 0.2625186,0.32551 0.6415864,0.50098 1.0319697,0.484451 H 2.7494 l 0.035304,-0.158941 c 0.3394637,-0.08901 0.6676119,-0.190728 0.8939211,-0.48318 l 0.037567,-0.04718 v -0.06701 c 0,0.009 -0.00631,0.0029 0.03983,-0.02734 0.046054,-0.03026 0.1267331,-0.06244 0.2104675,-0.08443 0.1663372,-0.04412 0.3405953,-0.05468 0.3405953,-0.05468 L 4.3534793,11.775326 3.900861,11.569338 V 11.209497 H 4.6986007 L 3.9710168,10.498713 V 10.280011 H 5.0335382 L 4.0298572,9.6213605 V 9.378499 L 4.6533389,9.3462023 4.7041453,9.0232351 4.0682166,8.7307841 V 8.4027304 H 5.1714737 L 4.2503954,7.5813245 V 7.4721004 L 5.1782629,7.3322325 4.2843418,6.671039 4.2730264,6.6074626 5.1782629,6.3785879 4.4088118,5.8191165 V 5.6924724 L 5.1137648,5.4165512 4.5547812,4.9193846 V 4.6930529 L 5.1997623,4.4768935 4.5887276,3.8284151 V 3.6771035 L 5.143185,3.4355136 4.5887276,2.9650488 V 2.7590616 L 5.2031569,2.629366 4.8320099,2.0063182 5.0085311,0.0227374 h -5.02406303 z m 0.3292798,0.33822595 H 4.6691353 L 4.5514545,1.7113241 H 4.2595157 L 4.6906346,2.4335509 4.2798835,2.5205234 V 3.1740879 L 4.5254289,3.380075 4.2798835,3.4892991 V 4.0131678 L 4.6159526,4.3679236 4.2448056,4.4976193 V 5.1333824 L 4.4880879,5.3495418 4.0965731,5.5033964 V 6.0526958 L 4.4122744,6.2790274 3.932499,6.4032555 3.9965445,6.9169521 4.3495867,7.180158 3.9490196,7.2447515 v 0.563286 L 4.3088511,8.1284622 H 3.7657091 V 9.019802 L 3.9580719,9.106774 3.7306312,9.119235 V 9.8770649 L 3.9252571,10.006761 H 3.6706593 v 0.710782 l 0.2251776,0.218703 H 3.5971088 v 0.9244 l 0.1810474,0.08202 c -0.059519,0.02136 -0.1199439,0.03624 -0.1742581,0.07197 -0.090863,0.05964 -0.1878366,0.165299 -0.1878366,0.317882 l 0.037567,-0.111767 C 3.2386352,12.475047 2.9557487,12.614915 2.6502314,12.6022 L 2.529156,12.5972 2.507091,12.69651 H 2.2932287 2.2888044 C 1.983287,12.721978 1.7004006,12.582109 1.4967223,12.327804 l 0.037567,0.111767 c 0,-0.151311 -0.093918,-0.261934 -0.1855735,-0.322967 -0.052617,-0.0351 -0.1129283,-0.0487 -0.1697319,-0.06955 l 0.1742585,-0.07948 v -0.9244 H 1.0567774 L 1.2796919,10.824479 V 10.113696 H 1.022831 L 1.21972,9.9840007 v -0.75783 L 0.99227926,9.2137097 1.184642,9.1267374 V 8.2353848 H 0.65847328 L 1.0149102,7.9175033 V 7.3567602 L 0.61434299,7.2921667 0.96738526,7.0289608 1.0330149,6.5203503 0.55323952,6.3931977 0.86894078,6.1643231 V 5.6150237 L 0.47968905,5.4611691 0.72297138,5.2450097 V 4.6092466 L 0.34956129,4.4795509 0.68563037,4.1247951 V 3.6009264 L 0.44008495,3.4917023 0.68563037,3.285715 V 2.5380577 L 0.27487928,2.4510853 0.7059982,1.7288585 H 0.4140594 L 0.29637864,0.41918654 Z"
     id="path2"
     inkscape:connector-curvature="0" />
</svg>
