<?xml version="1.0" encoding="UTF-8" standalone="no"?>
<svg
   xmlns:dc="http://purl.org/dc/elements/1.1/"
   xmlns:cc="http://creativecommons.org/ns#"
   xmlns:rdf="http://www.w3.org/1999/02/22-rdf-syntax-ns#"
   xmlns:svg="http://www.w3.org/2000/svg"
   xmlns="http://www.w3.org/2000/svg"
   xmlns:sodipodi="http://sodipodi.sourceforge.net/DTD/sodipodi-0.dtd"
   xmlns:inkscape="http://www.inkscape.org/namespaces/inkscape"
   height="16mm"
   width="5mm"
   version="1.1"
   viewBox="0 0 5.0024416 16.02958"
   id="svg4"
   sodipodi:docname="5x16mm.svg"
   inkscape:version="0.92.1 r15371">
  <metadata
     id="metadata10">
    <rdf:RDF>
      <cc:Work
         rdf:about="">
        <dc:format>image/svg+xml</dc:format>
        <dc:type
           rdf:resource="http://purl.org/dc/dcmitype/StillImage" />
        <dc:title></dc:title>
      </cc:Work>
    </rdf:RDF>
  </metadata>
  <defs
     id="defs8" />
  <sodipodi:namedview
     pagecolor="#ffffff"
     bordercolor="#666666"
     borderopacity="1"
     objecttolerance="10"
     gridtolerance="10"
     guidetolerance="10"
     inkscape:pageopacity="0"
     inkscape:pageshadow="2"
     inkscape:window-width="1430"
     inkscape:window-height="954"
     id="namedview6"
     showgrid="false"
     inkscape:zoom="14.84132"
     inkscape:cx="8.1259846"
     inkscape:cy="23.142148"
     inkscape:window-x="0"
     inkscape:window-y="0"
     inkscape:window-maximized="0"
     inkscape:current-layer="svg4" />
  <path
     style="color:#000000;text-indent:0;text-decoration:none;text-decoration-line:none;text-decoration-style:solid;text-decoration-color:#000000;text-transform:none;white-space:normal;isolation:auto;mix-blend-mode:normal;solid-color:#000000;fill:#ffffff;stroke-width:1.22528744;color-rendering:auto;image-rendering:auto;shape-rendering:auto"
     d="M 0.00746143,0.00720488 0.17563398,2.4515035 h 0.0332937 L -0.16377908,3.2561404 0.41800699,3.4133682 V 3.7357514 L -0.09673733,4.2642483 0.41800699,4.5549217 V 4.7874604 L -0.15468868,5.559066 0.46005013,5.8325633 V 6.1813712 L -0.05242159,6.7613967 0.60436035,7.0917073 V 7.2978212 L -0.11037294,7.9531575 0.73276235,8.2345817 0.71946759,8.3661775 -0.08162456,9.148353 0.75923813,9.3267207 v 0.1929015 l -0.84768049,0.9697928 h 1.02948863 v 0.484896 l -0.63746481,0.358057 0.0577241,0.330309 0.61473881,0.03871 V 12.07794 L 0.09313852,12.83898 H 1.0476314 v 0.343523 L 0.38403157,14.013565 H 1.1203546 v 0.531139 l -0.96131063,0.565492 0.56133267,0.03607 c 0,0 0.16930884,0.01163 0.33066356,0.06196 0.080563,0.02511 0.1556733,0.05985 0.199989,0.09552 0.043975,0.03568 0.048861,0.05008 0.048861,0.07227 v 0.05417 l 0.02659,0.04651 c 0.2170335,0.359378 0.5783771,0.540388 0.9522201,0.570777 l -0.062156,0.05417 0.4488389,0.0026 c 0.034316,1.59e-4 0.052611,-0.04849 0.086586,-0.05166 l 0.00444,0.01546 0.068746,-0.05932 C 3.1603639,15.950853 3.4921639,15.8145 3.6910165,15.486832 l 0.02659,-0.04386 v -0.05681 c 0,-0.01743 0.00441,-0.03131 0.048861,-0.06712 0.044429,-0.03568 0.1215841,-0.07227 0.2022615,-0.09803 0.1613548,-0.05166 0.3306635,-0.06448 0.3306635,-0.06448 l 0.5477007,-0.04384 -0.947675,-0.557564 V 14.024002 H 4.6334675 L 3.9698678,13.192941 V 12.849418 H 4.9243606 L 4.0437273,12.088382 V 11.711828 L 4.6584662,11.673117 4.7161909,11.342806 4.0787257,10.98475 V 10.499853 H 5.1059415 L 4.258261,9.53006 V 9.3437648 L 5.1104867,9.2248529 4.3150761,8.4453198 4.303713,8.3131955 5.1445756,8.0357347 4.4287061,7.375114 V 7.169 L 5.0832155,6.8386894 4.5730163,6.2586639 V 5.8926798 L 5.1786647,5.6191825 4.6082417,4.8475769 V 4.6150383 L 5.122986,4.3204011 4.6082417,3.7945466 V 3.4721634 L 5.1877552,3.3136144 4.8127759,2.5076564 h 0.031021 L 5.0119695,0.06335769 H 0.01224527 Z M 0.3335798,0.3586554 H 4.6742494 L 4.5549378,2.1026956 H 4.2992701 L 4.7208377,3.0183167 4.2901796,3.1344539 V 3.8928471 L 4.5697097,4.1795567 4.2901796,4.339427 V 4.9181313 L 4.6560686,5.4135972 4.253818,5.5946074 V 6.3477157 L 4.5356206,6.6674564 4.1095078,6.8814977 V 7.487948 l 0.3681616,0.3355956 -0.5261073,0.1757247 0.057725,0.5654919 0.399978,0.392409 -0.4545205,0.095526 V 9.677643 L 4.369494,10.154612 H 3.7729358 v 1.05303 l 0.2772574,0.157228 -0.3124827,0.0181 v 0.887875 l 0.2704396,0.232539 h -0.342027 v 0.831063 L 3.9388354,13.67797 H 3.5922636 v 1.096632 l 0.2397595,0.13873 c -0.082949,0.02999 -0.1670363,0.06356 -0.2420321,0.123933 -0.090904,0.07307 -0.177263,0.196864 -0.177263,0.354093 l 0.02659,-0.100682 c -0.1818081,0.396376 -0.4658833,0.5285 -0.7613216,0.5285 h -0.330664 c -0.3102103,0.0014 -0.6011032,-0.173083 -0.7795025,-0.46772 l 0.028861,0.100682 c 0,-0.15855 -0.086132,-0.284068 -0.1772629,-0.358058 C 1.345342,15.03396 1.261482,15.00477 1.1796683,14.975433 L 1.4148838,14.836699 V 13.740068 H 1.0683119 L 1.3432968,13.396545 V 12.565483 H 0.9989976 l 0.2704396,-0.23254 V 11.445069 L 0.95695449,11.426968 1.234212,11.26974 V 10.216711 H 0.63992654 L 1.0546764,9.7397412 V 9.1095085 L 0.59106559,9.0830836 0.99217983,8.6867108 1.0524038,8.1185765 0.52629644,7.9468156 0.89218534,7.6165049 V 7.0100546 L 0.46607248,6.7960133 0.74787511,6.4762726 V 5.7403405 L 0.34221568,5.5593303 0.70583199,5.0638644 V 4.4851601 L 0.42630196,4.3252898 0.70583199,4.0385801 V 3.2801869 L 0.27744653,3.1640497 0.69901417,2.2484286 H 0.44107387 L 0.32176228,0.50438846 Z"
     id="path2"
     inkscape:connector-curvature="0" />
</svg>
