<?xml version="1.0" encoding="UTF-8" standalone="no"?>
<svg
   xmlns:dc="http://purl.org/dc/elements/1.1/"
   xmlns:cc="http://creativecommons.org/ns#"
   xmlns:rdf="http://www.w3.org/1999/02/22-rdf-syntax-ns#"
   xmlns:svg="http://www.w3.org/2000/svg"
   xmlns="http://www.w3.org/2000/svg"
   xmlns:sodipodi="http://sodipodi.sourceforge.net/DTD/sodipodi-0.dtd"
   xmlns:inkscape="http://www.inkscape.org/namespaces/inkscape"
   height="8mm"
   width="5mm"
   version="1.1"
   viewBox="0 0 5.0017243 8.0050554"
   id="svg4"
   sodipodi:docname="5x8mm.svg"
   inkscape:version="0.92.1 r15371">
  <metadata
     id="metadata10">
    <rdf:RDF>
      <cc:Work
         rdf:about="">
        <dc:format>image/svg+xml</dc:format>
        <dc:type
           rdf:resource="http://purl.org/dc/dcmitype/StillImage" />
        <dc:title></dc:title>
      </cc:Work>
    </rdf:RDF>
  </metadata>
  <defs
     id="defs8" />
  <sodipodi:namedview
     pagecolor="#ffffff"
     bordercolor="#666666"
     borderopacity="1"
     objecttolerance="10"
     gridtolerance="10"
     guidetolerance="10"
     inkscape:pageopacity="0"
     inkscape:pageshadow="2"
     inkscape:window-width="1311"
     inkscape:window-height="850"
     id="namedview6"
     showgrid="false"
     inkscape:zoom="19.728805"
     inkscape:cx="9.3165351"
     inkscape:cy="13.989697"
     inkscape:window-x="0"
     inkscape:window-y="0"
     inkscape:window-maximized="0"
     inkscape:current-layer="svg4" />
  <path
     style="color:#000000;text-indent:0;text-decoration:none;text-decoration-line:none;text-decoration-style:solid;text-decoration-color:#000000;text-transform:none;white-space:normal;isolation:auto;mix-blend-mode:normal;solid-color:#000000;fill:#ffffff;stroke-width:1.21504402;color-rendering:auto;image-rendering:auto;shape-rendering:auto"
     d="m 0.01691781,0.01116575 0.1791521,1.24875695 -0.44555361,0.4708219 0.68868861,0.091753 v 0.00744 l -0.70264852,0.3515272 0.67240205,0.1878211 -0.7026485,0.4632076 0.77012138,0.1687852 v 0.024747 l -0.69101526,0.3845257 0.77012138,0.1776687 -0.9178637,0.4187904 0.95858008,0.1269062 -0.39553061,0.1903593 0.045486,0.3223418 0.42461376,0.044671 -0.45020692,0.2550814 0.0703812,0.3172655 h 0.65611548 v 0.081855 l -0.6107458,0.1840139 0.040949,0.329956 h 0.59794924 v 0.052032 l -0.47696339,0.2030499 0.05456,0.3248798 H 1.0461117 v 0.024747 L 0.14918789,7.0174789 H 1.1170745 v 0.1016518 l -0.42112369,0.1142156 0.0348998,0.3299561 c 0,0 0.17449883,0.00622 0.34318099,0.032234 0.084457,0.012944 0.1675188,0.03033 0.2163785,0.04962 0.00696,0.00276 0.00612,0.00234 0.011365,0.00496 v 0.032234 l 0.06817,0.04962 c 0.293158,0.2144715 0.643319,0.3198036 0.9946432,0.2944223 h 0.4432269 l 0.00909,-0.064469 c 0.2989717,-0.010686 0.600273,-0.067007 0.8492246,-0.2500063 l 0.06817,-0.04962 v -0.032234 c 0.00527,-0.00267 0.00429,-0.00214 0.011365,-0.00496 0.048278,-0.01929 0.1314557,-0.039214 0.2163785,-0.052031 0.1686822,-0.025508 0.343181,-0.029696 0.343181,-0.029696 L 4.3401256,7.2134221 3.9096952,7.0865158 V 6.984864 H 4.8799085 L 3.9829847,6.4290148 V 6.4066797 H 4.473908 L 4.5306782,6.0817995 4.0537149,5.8787496 V 5.8415661 L 4.658644,5.8217687 4.6904029,5.4918126 4.0878003,5.3255656 V 5.2487873 H 4.7415892 L 4.814297,4.9315219 4.3722334,4.6904 4.7910305,4.6396376 4.8375635,4.3223721 4.4303997,4.1320128 5.3726932,3.9797254 4.4885659,3.5736256 5.2563607,3.3832663 4.5653454,2.9987406 V 2.9739938 L 5.3215069,2.7963251 4.6235117,2.3394628 5.2982404,2.1491036 4.6002452,1.8064569 5.2866071,1.7176226 4.8329102,1.2341099 5.007409,-0.00830166 H 0.01674331 Z M 0.37638534,0.3461981 H 4.6574225 L 4.5597032,1.0175318 H 4.1758059 l 0.4304303,0.4657458 -0.325731,0.038072 v 0.5076248 l 0.093066,0.050762 -0.093066,0.025381 v 0.4187903 l 0.2093985,0.1395969 -0.2442983,0.050762 v 0.5050872 l 0.1022565,0.05698 -0.2454616,0.061931 V 3.782437 l 0.1221491,0.054569 -0.300138,0.04962 0.090856,0.4390954 0.1337823,0.061931 -0.1838053,0.019797 v 0.4467098 l 0.143089,0.081855 h -0.338528 v 0.6028043 h -0.034085 v 0.5571182 h -0.070382 v 0.553311 l 0.040949,0.024746 H 3.5949575 V 7.347866 C 3.5631985,7.362461 3.5302765,7.374897 3.4995645,7.402435 3.4876985,7.412982 3.4859545,7.441522 3.4745525,7.457004 3.2302545,7.6219829 2.9626897,7.7108172 2.6718583,7.685436 L 2.531096,7.6755198 2.526546,7.7052161 H 2.3287826 2.324234 c -0.2838514,0.019676 -0.5642128,-0.06294 -0.8003678,-0.23604 -0.010621,-0.013579 -0.011982,-0.040102 -0.022685,-0.04962 -0.030595,-0.026904 -0.061656,-0.040102 -0.093182,-0.05457 v -0.67641 H 1.3012057 L 1.3375007,6.666241 V 6.1103915 h -0.07038 V 5.527892 H 1.2375718 V 4.9352402 H 0.89671755 L 1.0444598,4.8509745 V 4.4004575 L 0.85832775,4.3877668 0.99792681,4.3243137 1.0909928,3.8801421 0.81179474,3.8420703 0.90951407,3.7973993 V 3.3506895 L 0.66405243,3.2887589 0.76851907,3.2317784 V 2.7266917 L 0.52771069,2.6746602 0.73245593,2.5388706 V 2.117542 L 0.64287993,2.092161 0.73606223,2.045079 V 1.5247632 L 0.41614779,1.4800922 0.85472142,1.0168846 H 0.46151749 L 0.36379816,0.34555087 Z"
     id="path2"
     inkscape:connector-curvature="0" />
</svg>
