<?xml version="1.0" encoding="UTF-8" standalone="no"?>
<svg
   xmlns:dc="http://purl.org/dc/elements/1.1/"
   xmlns:cc="http://creativecommons.org/ns#"
   xmlns:rdf="http://www.w3.org/1999/02/22-rdf-syntax-ns#"
   xmlns:svg="http://www.w3.org/2000/svg"
   xmlns="http://www.w3.org/2000/svg"
   xmlns:sodipodi="http://sodipodi.sourceforge.net/DTD/sodipodi-0.dtd"
   xmlns:inkscape="http://www.inkscape.org/namespaces/inkscape"
   height="16mm"
   width="3.3mm"
   version="1.1"
   viewBox="0 0 3.2991475 16.052032"
   id="svg4"
   sodipodi:docname="3.3x16mm.svg"
   inkscape:version="0.92.1 r15371">
  <metadata
     id="metadata10">
    <rdf:RDF>
      <cc:Work
         rdf:about="">
        <dc:format>image/svg+xml</dc:format>
        <dc:type
           rdf:resource="http://purl.org/dc/dcmitype/StillImage" />
        <dc:title></dc:title>
      </cc:Work>
    </rdf:RDF>
  </metadata>
  <defs
     id="defs8" />
  <sodipodi:namedview
     pagecolor="#ffffff"
     bordercolor="#666666"
     borderopacity="1"
     objecttolerance="10"
     gridtolerance="10"
     guidetolerance="10"
     inkscape:pageopacity="0"
     inkscape:pageshadow="2"
     inkscape:window-width="1104"
     inkscape:window-height="820"
     id="namedview6"
     showgrid="false"
     inkscape:zoom="7.1793374"
     inkscape:cx="-19.323893"
     inkscape:cy="23.244095"
     inkscape:window-x="0"
     inkscape:window-y="0"
     inkscape:window-maximized="0"
     inkscape:current-layer="svg4" />
  <path
     style="color:#000000;text-indent:0;text-decoration:none;text-decoration-line:none;text-decoration-style:solid;text-decoration-color:#000000;text-transform:none;white-space:normal;isolation:auto;mix-blend-mode:normal;solid-color:#000000;fill:#ffffff;stroke-width:1.20987058;color-rendering:auto;image-rendering:auto;shape-rendering:auto"
     d="M 0.04135137,0.15885894 0.12701981,2.5550568 h 0.0360223 l -0.22513943,0.7923935 0.35445028,0.1483361 v 0.371474 l -0.29556765,0.4881144 0.29556766,0.2599051 v 0.282726 L -0.04593346,5.6434897 0.31659876,5.8907164 V 6.2862793 L 0.02334021,6.8365175 0.41358189,7.1433323 V 7.4032374 L -0.0147603,8.0105277 0.50363767,8.2628258 0.49012931,8.4707499 -0.00633201,9.1883414 0.51206596,9.3569628 v 0.2282093 l -0.54148919,0.9407299 h 0.63847234 v 0.529952 l -0.72621899,0.628844 0.75046477,0.03956 v 0.423455 l -0.5414892,0.712521 h 0.59113533 v 0.40317 L 0.24998058,14.06594 h 0.48029744 v 0.556577 l -0.62230846,0.547702 0.40178728,0.02472 c 0,0 0.093635,0.007 0.18011154,0.04704 0.0434115,0.02003 0.0811656,0.04564 0.1036796,0.07429 0.0226294,0.02865 0.0360223,0.0554 0.0360223,0.111442 v 0.0322 l 0.009017,0.0322 c 0,0 0.0558808,0.154675 0.16856602,0.309351 0.1132624,0.155943 0.3001858,0.332171 0.5588075,0.332171 h 0.00902 l 0.2274486,-0.02726 h -0.015818 c 0.2586218,0 0.4456607,-0.176229 0.5588077,-0.332172 0.1132625,-0.155943 0.1685659,-0.30935 0.1685659,-0.30935 l 0.01128,-0.02967 v -0.0322 c 0,-0.0464 0.01053,-0.07011 0.033829,-0.09902 0.023299,-0.02891 0.063501,-0.05972 0.1082979,-0.08165 0.089594,-0.04399 0.1847297,-0.05693 0.1847297,-0.05693 L 3.2042602,15.125821 2.6477617,14.60094 V 14.041827 H 3.1015043 L 2.6974078,13.264647 V 12.888102 H 3.2746884 L 2.7447448,12.150225 V 11.744519 L 3.4732729,11.665279 2.7701452,11.056721 V 10.55466 H 3.399381 L 2.8925286,9.6164665 V 9.3857215 L 3.4063083,9.2196358 2.9121562,8.474152 2.9008762,8.2903167 3.4215832,8.035483 2.9655316,7.4015682 V 7.1467554 L 3.3927192,6.7156934 3.0578964,6.1578481 V 5.7635531 L 3.4250469,5.5137907 3.0578964,4.7683069 V 4.4931879 L 3.3823281,4.2332828 3.0821422,3.7400971 V 3.368623 L 3.4365925,3.220287 3.2114531,2.4278935 h 0.01128 L 3.3355338,0.03169563 H 0.03348881 Z M 0.35885569,0.49610161 H 3.0143464 L 2.9331808,2.2330281 H 2.7980971 L 3.0624916,3.1585437 2.7807787,3.2774661 v 0.7036454 l 0.1870388,0.3093504 -0.2124391,0.171157 v 0.5299528 l 0.265549,0.5426311 -0.265549,0.1812996 v 0.6808245 l 0.2101301,0.358796 -0.3094224,0.2256737 v 0.550238 L 2.9447264,7.9113835 2.5752668,8.0888796 2.6112891,8.6036184 2.9022385,9.0397518 2.5847342,9.1413049 V 9.7156317 L 2.8595197,10.225299 H 2.4623506 v 1.000318 l 0.2251395,0.195246 -0.2505398,0.02726 v 0.826625 l 0.2032029,0.285261 h -0.252849 v 0.802537 l 0.1824207,0.351189 H 2.3376581 v 1.049762 L 2.524697,14.93719 c -0.067427,0.03461 -0.1385473,0.07924 -0.1985845,0.153407 -0.063732,0.07924 -0.1104916,0.193978 -0.1104916,0.322029 l 0.01128,-0.06441 c 0,0 -0.041795,0.114866 -0.1235381,0.22821 -0.082205,0.112837 -0.1881935,0.205388 -0.3198134,0.205388 h -0.00902 -0.00902 l -0.2032027,0.02472 c -0.13162,0 -0.2378396,-0.09268 -0.3198134,-0.205389 -0.082205,-0.112836 -0.1235381,-0.225673 -0.1235381,-0.225673 l 0.01128,0.06187 c 0,-0.131854 -0.046067,-0.247227 -0.1104915,-0.329636 -0.054957,-0.06986 -0.12007438,-0.108019 -0.18242069,-0.140729 L 1.0336044,14.793284 V 13.740986 H 0.78075545 L 0.98395821,13.364441 V 12.532744 H 0.7403458 L 0.93431208,12.27791 v -0.864659 l -0.22744856,-0.01243 0.20320277,-0.176228 v -1.02821 H 0.52213374 L 0.81308316,9.6892509 V 9.1123984 L 0.49788795,9.2011464 0.78191001,8.7954409 0.81654683,8.2502742 0.45747832,8.0727781 0.71263634,7.7177858 V 7.1700835 L 0.41937779,6.9418742 0.61334407,6.5780071 V 5.9022537 L 0.34317675,5.7184184 0.59140741,5.1757873 V 4.6534415 L 0.39744113,4.4848202 0.59140741,4.1678628 V 3.4642174 L 0.30969448,3.345295 0.57177987,2.4197794 H 0.41360499 L 0.35275961,0.6828529 Z"
     id="path2"
     inkscape:connector-curvature="0" />
</svg>
