<?xml version="1.0" encoding="UTF-8" standalone="no"?>
<svg
   xmlns:dc="http://purl.org/dc/elements/1.1/"
   xmlns:cc="http://creativecommons.org/ns#"
   xmlns:rdf="http://www.w3.org/1999/02/22-rdf-syntax-ns#"
   xmlns:svg="http://www.w3.org/2000/svg"
   xmlns="http://www.w3.org/2000/svg"
   xmlns:sodipodi="http://sodipodi.sourceforge.net/DTD/sodipodi-0.dtd"
   xmlns:inkscape="http://www.inkscape.org/namespaces/inkscape"
   height="11.5mm"
   width="4.1999998mm"
   version="1.1"
   viewBox="0 0 4.2056988 11.497034"
   id="svg4"
   sodipodi:docname="4.2x11.5mm.svg"
   inkscape:version="0.92.1 r15371">
  <metadata
     id="metadata10">
    <rdf:RDF>
      <cc:Work
         rdf:about="">
        <dc:format>image/svg+xml</dc:format>
        <dc:type
           rdf:resource="http://purl.org/dc/dcmitype/StillImage" />
        <dc:title></dc:title>
      </cc:Work>
    </rdf:RDF>
  </metadata>
  <defs
     id="defs8" />
  <sodipodi:namedview
     pagecolor="#ffffff"
     bordercolor="#666666"
     borderopacity="1"
     objecttolerance="10"
     gridtolerance="10"
     guidetolerance="10"
     inkscape:pageopacity="0"
     inkscape:pageshadow="2"
     inkscape:window-width="1274"
     inkscape:window-height="752"
     id="namedview6"
     showgrid="false"
     inkscape:zoom="10.352386"
     inkscape:cx="6.4062994"
     inkscape:cy="11.036495"
     inkscape:window-x="0"
     inkscape:window-y="0"
     inkscape:window-maximized="0"
     inkscape:current-layer="svg4" />
  <path
     style="color:#000000;text-indent:0;text-decoration:none;text-decoration-line:none;text-decoration-style:solid;text-decoration-color:#000000;text-transform:none;white-space:normal;isolation:auto;mix-blend-mode:normal;solid-color:#000000;fill:#ffffff;stroke-width:1.25622904;color-rendering:auto;image-rendering:auto;shape-rendering:auto"
     d="M -0.07337221,0.00736723 0.07512571,1.8112216 -0.22428474,2.3785207 0.28761055,2.4934184 V 2.656811 l -0.45515218,0.4104422 0.45515218,0.2274425 v 0.1071856 l -0.52396829,0.594749 0.55415079,0.2065283 V 4.3874654 L -0.13735913,4.847579 0.45421798,5.0972429 v 0.079082 l -0.67488082,0.5110921 0.77870863,0.214371 -0.004721,0.030587 -0.76542833,0.640499 0.78474513,0.1372497 v 0.061304 l -0.83424398,0.7738274 h 0.95738907 v 0.2601211 l -0.51189529,0.2431281 0.0566224,0.3320138 0.48533468,0.023005 V 8.5943674 L -0.132542,9.2074165 H 0.78742076 V 9.3760372 L 0.15600275,10.037451 h 0.69299032 v 0.288878 l -0.36339736,0.179079 0.0566224,0.332014 c 0,0 0.14125412,0.006 0.27405715,0.04079 0.0664015,0.01739 0.13038842,0.04458 0.16298555,0.0664 0.031873,0.02183 0.018834,0.01516 0.018834,0.0051 v 0.0613 l 0.035374,0.04601 c 0.2148995,0.292799 0.5432851,0.458806 0.888573,0.449656 h 0.1460833 l 0.00235,0.01019 0.1202471,0.0051 c 0.3452879,0.0099 0.6760882,-0.156857 0.8909876,-0.449657 l 0.032959,-0.04849 v -0.05869 c 0,0.01007 -0.010612,0.01412 0.021249,-0.0077 0.031861,-0.02178 0.094049,-0.0464 0.1605709,-0.06379 0.132803,-0.06536 0.2776791,-0.06536 0.2776791,-0.06536 l 0.05892,-0.32948 -0.3633974,-0.179079 V 10.025687 H 3.9602661 L 3.3312627,9.3642734 V 9.2061093 H 4.2512254 L 3.3904204,8.5930603 V 8.4022178 L 3.8733405,8.3760749 3.9337055,8.0492897 3.4145664,7.8009329 V 7.540812 H 4.3574678 L 3.5678935,6.780056 V 6.7162675 L 4.3526386,6.5790178 3.586003,5.9633544 3.5812825,5.9327673 4.3599911,5.7183962 3.6851103,5.2073041 V 5.1282221 L 4.2766874,4.8785582 3.8215352,4.4184446 V 4.2341378 L 4.375686,4.0276095 3.8517177,3.4328604 V 3.2956107 L 4.3068699,3.0681682 3.8517177,2.657726 V 2.4943334 L 4.363613,2.3794357 4.0642025,1.8121366 4.2151151,0.00828223 H -0.08287367 Z M 0.27553755,0.35506669 H 3.8732922 L 3.7812959,1.480515 H 3.5313847 L 3.8815018,2.1419282 3.544665,2.2185268 V 2.8263471 L 3.7257601,2.9897398 3.544665,3.0791485 V 3.5771691 L 3.813893,3.8830401 3.5168971,3.9928399 V 4.5745173 L 3.7004068,4.7614384 3.3792649,4.8986882 v 0.4954064 l 0.2378382,0.1790783 -0.3766777,0.1047019 0.058916,0.482335 0.269228,0.2143711 -0.3066543,0.053592 V 6.9418801 L 3.5335579,7.202001 H 3.1085882 v 0.8326487 l 0.075456,0.035685 -0.1084156,0.00511 v 0.7071632 l 0.1108302,0.079083 h -0.172644 v 0.6509557 l 0.160571,0.1686212 H 2.9546574 v 0.8627152 l 0.1202471,0.05869 c -0.034167,0.0153 -0.068816,0.02105 -0.1014132,0.0434 -0.081976,0.05607 -0.1702293,0.160778 -0.1702293,0.299336 L 2.838636,10.838222 C 2.69376,11.047364 2.4643729,11.151936 2.2229129,11.151936 H 1.9114293 c -0.24146,0.01308 -0.4708471,-0.104572 -0.6277961,-0.313714 l 0.035374,0.107186 c 0,-0.138558 -0.087771,-0.243129 -0.1702293,-0.299336 -0.032476,-0.02222 -0.067367,-0.02823 -0.1014132,-0.0434 l 0.1202471,-0.05869 V 9.6864962 H 0.94546843 L 1.1060393,9.5178751 V 8.8564623 H 0.93581003 L 1.0466402,8.7773803 V 8.0676028 L 0.9429331,8.0624918 1.0136809,8.0292905 V 7.1966418 H 0.60078422 L 0.89295087,6.9260636 V 6.4123573 L 0.58871122,6.3600716 0.85793917,6.1509291 0.91685542,5.6685941 0.54017775,5.5638922 0.77801589,5.3821996 V 4.8867932 L 0.45687404,4.7508506 0.64038367,4.5639295 V 3.9822518 L 0.34338782,3.872452 0.61261576,3.566581 V 3.0999317 L 0.43152073,3.0105232 0.61261576,2.8471307 V 2.2393102 L 0.27457171,2.1478104 0.62106687,1.486397 H 0.37115572 L 0.27915945,0.36094883 Z"
     id="path2"
     inkscape:connector-curvature="0" />
</svg>
