<?xml version="1.0" encoding="UTF-8" standalone="no"?>
<svg
   xmlns:dc="http://purl.org/dc/elements/1.1/"
   xmlns:cc="http://creativecommons.org/ns#"
   xmlns:rdf="http://www.w3.org/1999/02/22-rdf-syntax-ns#"
   xmlns:svg="http://www.w3.org/2000/svg"
   xmlns="http://www.w3.org/2000/svg"
   xmlns:sodipodi="http://sodipodi.sourceforge.net/DTD/sodipodi-0.dtd"
   xmlns:inkscape="http://www.inkscape.org/namespaces/inkscape"
   height="10mm"
   width="3.75mm"
   version="1.1"
   viewBox="0 0 3.7519736 10.003652"
   id="svg4"
   sodipodi:docname="3.75x10mm.svg"
   inkscape:version="0.92.1 r15371">
  <metadata
     id="metadata10">
    <rdf:RDF>
      <cc:Work
         rdf:about="">
        <dc:format>image/svg+xml</dc:format>
        <dc:type
           rdf:resource="http://purl.org/dc/dcmitype/StillImage" />
        <dc:title></dc:title>
      </cc:Work>
    </rdf:RDF>
  </metadata>
  <defs
     id="defs8" />
  <sodipodi:namedview
     pagecolor="#ffffff"
     bordercolor="#666666"
     borderopacity="1"
     objecttolerance="10"
     gridtolerance="10"
     guidetolerance="10"
     inkscape:pageopacity="0"
     inkscape:pageshadow="2"
     inkscape:window-width="1199"
     inkscape:window-height="805"
     id="namedview6"
     showgrid="false"
     inkscape:zoom="7.8641897"
     inkscape:cx="6.4629923"
     inkscape:cy="15.004725"
     inkscape:window-x="0"
     inkscape:window-y="0"
     inkscape:window-maximized="0"
     inkscape:current-layer="svg4" />
  <path
     style="color:#000000;text-indent:0;text-decoration:none;text-decoration-line:none;text-decoration-style:solid;text-decoration-color:#000000;text-transform:none;white-space:normal;isolation:auto;mix-blend-mode:normal;solid-color:#000000;fill:#ffffff;stroke-width:1.23195338;color-rendering:auto;image-rendering:auto;shape-rendering:auto"
     d="m 0.03902831,0.0097726 0.12816049,1.5839019 -0.28506724,0.5169856 0.45874265,0.103904 v 0.1212635 l -0.43119413,0.3547941 0.42999637,0.2078078 v 0.079195 L -0.1190762,3.5148842 0.36961049,3.6998839 v 0.1406506 l -0.42760085,0.4105473 0.53060834,0.2255476 v 0.051952 L -0.12386725,4.993615 0.56125233,5.1862175 v 0.00989 l -0.6875151,0.5550055 0.70428376,0.1237977 v 0.037127 L -0.1346471,6.5962829 h 0.84681738 v 0.2002052 l -0.43478743,0.2027396 0.056175,0.3193145 0.40484339,0.019768 v 0.1431843 l -0.77255615,0.563869 H 0.79110276 V 8.1715684 L 0.22456157,8.770917 H 0.84500203 V 8.9989988 L 0.54077061,9.147252 0.59922136,9.4691009 c 0,0 0.12097392,0.00496 0.2335635,0.034592 0.0564146,0.014825 0.10875678,0.037507 0.13295154,0.054486 0.0246738,0.016979 0.0117024,0.00852 0.0117024,-0.00496 v 0.056893 l 0.0326988,0.044603 c 0.1844553,0.2534287 0.4838956,0.4054831 0.783336,0.3928121 V 9.7180754 c -0.2036194,0 -0.4072389,-0.1013697 -0.527015,-0.2787667 l 0.032699,0.1039039 c 0,-0.1258251 -0.079771,-0.2230133 -0.1545113,-0.2749653 -0.018925,-0.013052 -0.039047,-0.014572 -0.058451,-0.024709 l 0.079531,-0.039532 V 8.4247267 H 0.99444677 L 1.111468,8.3009289 V 7.7015804 H 0.98330753 l 0.07486,-0.054486 V 7.0084649 l -0.042161,-0.00247 0.01641,-0.00743 V 6.2458985 H 0.68865821 L 0.89946424,6.0406248 V 5.573057 L 0.65032985,5.5350433 0.86113587,5.3703175 0.91024414,4.926825 0.59643059,4.8381265 0.79046795,4.686072 V 4.2362438 L 0.5305537,4.1248638 0.68506494,3.9791448 V 3.449488 L 0.43473278,3.3529333 0.65751642,3.0931735 V 2.6699548 L 0.50540071,2.5957016 0.65751642,2.4639209 V 1.9139902 L 0.37484471,1.8496204 0.69584479,1.2680116 H 0.4622813 L 0.38274994,0.31767046 H 3.4370418 L 3.3597861,1.2680116 H 3.1262226 L 3.4448272,1.8496204 3.164551,1.9139904 V 2.4639211 L 3.3166667,2.5957018 3.164551,2.6699548 v 0.4257529 l 0.2227836,0.249623 -0.2479366,0.09402 V 3.9690078 L 3.2939093,4.1147269 3.033995,4.2261068 V 4.675935 L 3.2280324,4.8241882 2.9142189,4.9132662 2.9633269,5.3542245 3.174133,5.5252859 2.9285919,5.5673539 V 6.0450592 L 3.141793,6.2503329 H 2.7980355 V 7.003003 l 0.016409,0.00743 -0.042161,0.00247 v 0.6386236 l 0.074861,0.054486 H 2.7189838 V 8.305361 L 2.836005,8.4291589 H 2.6647251 v 0.7792797 l 0.079531,0.039534 c -0.019524,0.010162 -0.039526,0.011708 -0.058451,0.024709 C 2.6111841,9.3239996 2.531294,9.4222019 2.531294,9.5476469 l 0.0327,-0.1039037 C 2.4322396,9.6211428 2.2405978,9.7225125 2.0250008,9.7225125 l -0.00702,0.3370545 c 0.3078247,0.0063 0.6012763,-0.1431849 0.7881271,-0.4004106 l 0.032699,-0.044603 v -0.056893 c 0,0.013432 -0.012936,0.021921 0.011702,0.00496 0.024638,-0.016971 0.076896,-0.039665 0.1329515,-0.05449 0.112949,-0.029651 0.2335635,-0.034592 0.2335635,-0.034592 L 3.276913,9.1567554 2.965495,9.0047008 V 8.776619 H 3.5859355 L 3.0193943,8.1772705 V 8.0510651 H 3.8446519 L 3.0720958,7.4871961 V 7.3440114 L 3.4793347,7.3186689 3.5392228,7.0018886 3.096051,6.7991492 V 6.598944 H 3.9428684 L 3.2290025,5.9134311 v -0.04701 L 3.9332863,5.7426232 3.2457712,5.187624 3.2434355,5.1777277 3.9309507,4.9851253 3.3344654,4.5200917 V 4.4681397 L 3.8734581,4.2400579 3.442264,3.8345789 V 3.6825243 L 3.9333462,3.5051273 3.4662192,2.9729363 V 2.8962755 L 3.8974134,2.6808648 3.4662192,2.3133995 V 2.1921361 L 3.9333462,2.0907664 3.6458834,1.5712465 3.7776372,1.5760232e-5 H 0.01666611 Z"
     id="path2"
     inkscape:connector-curvature="0" />
</svg>
