<?xml version="1.0" encoding="UTF-8" standalone="no"?>
<svg
   xmlns:dc="http://purl.org/dc/elements/1.1/"
   xmlns:cc="http://creativecommons.org/ns#"
   xmlns:rdf="http://www.w3.org/1999/02/22-rdf-syntax-ns#"
   xmlns:svg="http://www.w3.org/2000/svg"
   xmlns="http://www.w3.org/2000/svg"
   xmlns:sodipodi="http://sodipodi.sourceforge.net/DTD/sodipodi-0.dtd"
   xmlns:inkscape="http://www.inkscape.org/namespaces/inkscape"
   height="11.5mm"
   width="3.75mm"
   version="1.1"
   viewBox="0 0 3.7460805 11.503731"
   id="svg4"
   sodipodi:docname="3.75x11.5mm.svg"
   inkscape:version="0.92.1 r15371">
  <metadata
     id="metadata10">
    <rdf:RDF>
      <cc:Work
         rdf:about="">
        <dc:format>image/svg+xml</dc:format>
        <dc:type
           rdf:resource="http://purl.org/dc/dcmitype/StillImage" />
        <dc:title></dc:title>
      </cc:Work>
    </rdf:RDF>
  </metadata>
  <defs
     id="defs8" />
  <sodipodi:namedview
     pagecolor="#ffffff"
     bordercolor="#666666"
     borderopacity="1"
     objecttolerance="10"
     gridtolerance="10"
     guidetolerance="10"
     inkscape:pageopacity="0"
     inkscape:pageshadow="2"
     inkscape:window-width="1319"
     inkscape:window-height="839"
     id="namedview6"
     showgrid="false"
     inkscape:zoom="13.969054"
     inkscape:cx="6.6897637"
     inkscape:cy="22.898158"
     inkscape:window-x="0"
     inkscape:window-y="0"
     inkscape:window-maximized="0"
     inkscape:current-layer="svg4" />
  <path
     style="color:#000000;text-indent:0;text-decoration:none;text-decoration-line:none;text-decoration-style:solid;text-decoration-color:#000000;text-transform:none;white-space:normal;isolation:auto;mix-blend-mode:normal;solid-color:#000000;fill:#ffffff;stroke-width:1.22830498;color-rendering:auto;image-rendering:auto;shape-rendering:auto"
     d="M 0.03625832,0.00301004 0.15926667,1.8188864 h 0.0114457 l -0.27413293,0.5782471 0.45103062,0.098135 v 0.1687091 l -0.41471387,0.4146895 0.41471387,0.2292383 v 0.1056041 l -0.44634459,0.5962772 0.47094627,0.2060569 v 0.195754 l -0.4147139,0.4533248 0.51312054,0.2459804 v 0.080491 l -0.56700992,0.5061272 0.65253002,0.2163598 -0.002284,0.035159 -0.64550096,0.5911257 0.66073058,0.1532549 v 0.067869 L -0.06938786,7.5430175 H 0.71786559 V 7.814755 l -0.94540704,0.5537779 0.97000871,0.047779 V 8.6069155 L 0.01964634,9.2160712 H 0.79284169 V 9.387356 L 0.24340438,10.03386 H 0.8408735 v 0.30651 l -0.74390763,0.50999 0.49671944,0.02768 c 0,0 0.11633075,0.006 0.22610107,0.03773 0.0550608,0.01584 0.10625576,0.03954 0.13003736,0.05783 0.0241329,0.01829 0.0160501,0.0099 0.0160501,0.005 v 0.0528 l 0.0251878,0.04276 C 1.1691309,11.36779 1.4643509,11.531348 1.764257,11.531348 h 0.2495312 c 0.299906,0 0.5951262,-0.163558 0.7731953,-0.457188 l 0.025188,-0.04276 v -0.0528 c 0,-0.0085 -0.00347,-0.005 0.020619,-0.02511 0.024015,-0.02009 0.073922,-0.04584 0.1276943,-0.06284 0.1083646,-0.034 0.2237581,-0.04019 0.2237581,-0.04019 L 3.7465652,10.82034 2.9593117,10.360576 v -0.29878 H 3.515778 L 3.0096865,9.4178782 V 9.2169727 H 3.813341 L 3.0577183,8.6309985 V 8.4172144 L 3.4560311,8.3971239 3.5155437,8.0751599 3.0832572,7.8484974 V 7.5535784 H 3.9138565 L 3.2062655,6.8195008 V 6.7364343 L 3.8740252,6.6334056 3.2296957,6.0023564 V 5.9637208 L 3.8740252,5.7447853 3.3117013,5.2425216 V 5.1620306 L 3.8224788,4.9160503 3.410108,4.4627251 V 4.266971 L 3.8904263,4.0609141 3.4335381,3.4685006 V 3.3268365 L 3.855281,3.1079011 3.4335381,2.6829087 V 2.5141996 L 3.8845687,2.416065 3.6104359,1.8378179 h 0.011445 L 3.7507473,0.03482008 H 0.04878174 Z M 0.37013814,0.34300392 H 3.4160592 L 3.3382712,1.4750289 H 3.102798 L 3.4226197,2.1485774 3.1273996,2.2140004 V 2.8102776 L 3.3101549,2.994441 3.1273996,3.0950225 V 3.5599383 L 3.3769309,3.8896293 3.105141,4.0104302 V 4.5783745 L 3.2855532,4.7767042 3.0043913,4.9119291 V 5.376845 L 3.2304924,5.5803262 2.8919265,5.6909529 2.9377325,6.1442781 3.1849207,6.386395 2.9061018,6.434174 V 6.951892 L 3.1415749,7.1978723 H 2.7819219 V 8.047857 l 0.050375,0.025113 -0.075562,0.00504 v 0.714757 l 0.086926,0.067871 H 2.7065939 V 9.5316092 L 2.8436604,9.7054693 H 2.6585621 v 0.8448337 l 0.1029753,0.0604 c -0.037488,0.01855 -0.074391,0.02821 -0.1098875,0.05783 -0.073571,0.06169 -0.1417524,0.168709 -0.1417524,0.296207 l 0.025188,-0.09311 C 2.4296499,11.077677 2.2304931,11.193585 2.0313368,11.193585 H 1.7818056 c -0.1968134,0 -0.3959698,-0.107537 -0.5142922,-0.303935 l 0.025188,0.09311 c 0,-0.127626 -0.075211,-0.230525 -0.1487815,-0.287192 -0.041003,-0.03116 -0.082943,-0.0425 -0.1253514,-0.0604 L 1.1696924,10.532016 V 9.6949088 H 0.97287908 L 1.1193176,9.523624 V 8.8771205 H 0.95179189 L 1.0712858,8.776539 V 8.0952634 L 0.95179189,8.0902251 1.0456296,8.0348471 V 7.2144861 H 0.64263092 L 0.8968482,6.9054007 V 6.430182 L 0.61217171,6.3657893 0.86170293,6.1339752 0.90973477,5.6832258 0.57116893,5.5673188 0.79492697,5.361262 V 4.8963461 L 0.51376502,4.7675605 0.6965203,4.566655 V 3.9987107 L 0.42473041,3.8779099 0.67191862,3.5482188 V 3.110348 L 0.49150638,3.0097664 0.67191862,2.8256031 V 2.2293259 L 0.3790416,2.1664786 0.69886331,1.4903544 H 0.46339018 L 0.38560204,0.35832939 Z"
     id="path2"
     inkscape:connector-curvature="0" />
</svg>
