<?xml version="1.0" encoding="UTF-8" standalone="no"?>
<svg
   xmlns:dc="http://purl.org/dc/elements/1.1/"
   xmlns:cc="http://creativecommons.org/ns#"
   xmlns:rdf="http://www.w3.org/1999/02/22-rdf-syntax-ns#"
   xmlns:svg="http://www.w3.org/2000/svg"
   xmlns="http://www.w3.org/2000/svg"
   xmlns:sodipodi="http://sodipodi.sourceforge.net/DTD/sodipodi-0.dtd"
   xmlns:inkscape="http://www.inkscape.org/namespaces/inkscape"
   height="10mm"
   width="4.1999998mm"
   version="1.1"
   viewBox="0 0 4.1980512 9.9994835"
   id="svg4"
   sodipodi:docname="4.2x10mm.svg"
   inkscape:version="0.92.1 r15371">
  <metadata
     id="metadata10">
    <rdf:RDF>
      <cc:Work
         rdf:about="">
        <dc:format>image/svg+xml</dc:format>
        <dc:type
           rdf:resource="http://purl.org/dc/dcmitype/StillImage" />
        <dc:title></dc:title>
      </cc:Work>
    </rdf:RDF>
  </metadata>
  <defs
     id="defs8" />
  <sodipodi:namedview
     pagecolor="#ffffff"
     bordercolor="#666666"
     borderopacity="1"
     objecttolerance="10"
     gridtolerance="10"
     guidetolerance="10"
     inkscape:pageopacity="0"
     inkscape:pageshadow="2"
     inkscape:window-width="973"
     inkscape:window-height="722"
     id="namedview6"
     showgrid="false"
     inkscape:zoom="16.134798"
     inkscape:cx="7.3322837"
     inkscape:cy="10.403362"
     inkscape:window-x="0"
     inkscape:window-y="0"
     inkscape:window-maximized="0"
     inkscape:current-layer="svg4" />
  <path
     style="color:#000000;text-indent:0;text-decoration:none;text-decoration-line:none;text-decoration-style:solid;text-decoration-color:#000000;text-transform:none;white-space:normal;isolation:auto;mix-blend-mode:normal;solid-color:#000000;fill:#ffffff;stroke-width:1.2329756;color-rendering:auto;image-rendering:auto;shape-rendering:auto"
     d="M 0.0330651,0.01878968 0.17969029,1.5999296 -0.12529009,2.1209281 0.38848455,2.222147 v 0.1139198 l -0.47154658,0.3823248 0.47154658,0.2073626 v 0.058191 L -0.14757712,3.5282723 0.41546357,3.7161947 V 3.8509803 L -0.053737,4.2708896 0.55153174,4.4989885 v 0.032919 l -0.69441686,0.4782296 0.77887297,0.1892184 -0.77887297,0.5598791 0.808198,0.1240288 v 0.017756 L -0.14523111,6.6021639 H 0.79668905 V 6.7939744 L 0.30637443,7.001337 0.35446753,7.3331172 0.82601411,7.3533352 V 7.4773635 L -0.06312101,8.0514987 H 0.88583716 V 8.157772 L 0.1984583,8.7656036 h 0.73077992 v 0.2125467 l -0.34603544,0.151634 0.0504391,0.3317801 c 0,0 0.13958717,0.00715 0.26979038,0.037973 0.0654536,0.015422 0.12668404,0.03875 0.15835514,0.058191 0.031672,0.01944 0.013724,0.010083 0.013724,-0.017756 v 0.065837 l 0.038944,0.050674 C 1.337326,9.9156885 1.6540364,10.058251 1.9824769,10.04529 h 0.3460353 l 0.04129,-0.0683 C 2.6431105,9.9489961 2.9152469,9.8646255 3.102927,9.6374338 l 0.04129,-0.050674 v -0.065838 c 0,0.027864 -0.020176,0.037066 0.01146,0.017756 0.031672,-0.01944 0.094896,-0.042769 0.1607012,-0.058191 0.1313759,-0.030845 0.2697902,-0.037973 0.2697902,-0.037973 L 3.6330886,9.1055487 3.2811882,8.9500268 V 8.7374801 H 3.9932 L 3.3374923,8.1270564 V 8.0157286 h 0.948958 L 3.3973152,7.4415934 V 7.3175647 L 3.8782459,7.2916443 3.9251659,6.9676402 3.4325054,6.7602777 V 6.5853155 h 0.952477 L 3.5896876,5.8867627 V 5.8665448 L 4.4107886,5.7369432 3.6248776,5.1796562 4.4107886,4.9982139 3.7069876,4.5186879 V 4.485769 L 4.3122565,4.2576702 3.8407099,3.8377608 V 3.7029751 L 4.4060965,3.5150529 3.8676888,2.973318 V 2.915127 L 4.3415814,2.7077643 3.8676888,2.3254395 V 2.2115197 L 4.3838094,2.0948782 4.0788291,1.5764716 4.2195894,-0.00466822 H 0.03197421 Z m 0.34603542,0.3421483 H 3.8746447 L 3.7898368,1.2953658 H 3.5259115 L 3.8649088,1.872093 3.5528904,1.9328765 v 0.5741353 l 0.1466254,0.1189743 -0.1466254,0.063245 v 0.4432373 l 0.2334274,0.235875 -0.2615793,0.086055 V 4.0065022 L 3.6760556,4.142584 3.3921892,4.2488573 V 4.7167191 L 3.5845616,4.8489129 3.2526021,4.929914 3.3167652,5.3887037 3.5302513,5.5403376 3.27571,5.5807736 V 6.0615949 L 3.4962344,6.2534054 H 3.1185279 v 0.7439133 l -0.029795,0.00252 v 0.6505988 l 0.055014,0.035381 H 3.0291453 V 8.2962464 L 3.1487915,8.4075791 H 2.9704952 v 0.786682 l 0.068737,0.030326 c -0.01349,0.0069 -0.028034,0.00707 -0.04129,0.015163 C 2.919,9.2882213 2.8266846,9.3836081 2.8266846,9.5235778 L 2.865629,9.4071965 C 2.7014088,9.6145592 2.4785384,9.7182404 2.2439382,9.7182404 l -0.087036,-0.00252 -0.00687,0.012662 H 1.964698 1.960118 c -0.2346002,0 -0.4574705,-0.1036813 -0.6216908,-0.2980837 l 0.04129,0.1139198 c 0,-0.1386738 -0.092902,-0.2345789 -0.1712582,-0.2838276 -0.01173,0 -0.02346,0 -0.04692,-0.01296 L 1.227933,9.2170989 V 8.430415 H 1.0695642 L 1.1841665,8.3291961 V 7.7161803 H 1.0719102 l 0.055014,-0.035381 V 7.030199 L 1.0949012,7.027679 V 6.2656141 H 0.74182777 L 0.96352498,6.0738037 V 5.5929817 L 0.71836773,5.5541012 0.93185402,5.3985792 0.99636898,4.9449736 0.66323667,4.8672126 0.85560891,4.7246507 V 4.256789 L 0.57174257,4.1479235 0.72305974,4.0131378 V 3.4610349 L 0.46148043,3.3749794 0.69490771,3.1391045 V 2.6958669 L 0.54828253,2.6300293 0.69490771,2.5136471 V 1.9395118 L 0.38288933,1.8787286 0.72188675,1.3020013 H 0.45796143 l -0.084808,-0.93442772 z"
     id="path2"
     inkscape:connector-curvature="0" />
</svg>
