<?xml version="1.0" encoding="UTF-8" standalone="no"?>
<svg
   xmlns:dc="http://purl.org/dc/elements/1.1/"
   xmlns:cc="http://creativecommons.org/ns#"
   xmlns:rdf="http://www.w3.org/1999/02/22-rdf-syntax-ns#"
   xmlns:svg="http://www.w3.org/2000/svg"
   xmlns="http://www.w3.org/2000/svg"
   xmlns:sodipodi="http://sodipodi.sourceforge.net/DTD/sodipodi-0.dtd"
   xmlns:inkscape="http://www.inkscape.org/namespaces/inkscape"
   height="13mm"
   width="4.1999998mm"
   version="1.1"
   viewBox="0 0 4.1989574 13.019306"
   id="svg4"
   sodipodi:docname="4.2x13mm.svg"
   inkscape:version="0.92.1 r15371">
  <metadata
     id="metadata10">
    <rdf:RDF>
      <cc:Work
         rdf:about="">
        <dc:format>image/svg+xml</dc:format>
        <dc:type
           rdf:resource="http://purl.org/dc/dcmitype/StillImage" />
        <dc:title></dc:title>
      </cc:Work>
    </rdf:RDF>
  </metadata>
  <defs
     id="defs8" />
  <sodipodi:namedview
     pagecolor="#ffffff"
     bordercolor="#666666"
     borderopacity="1"
     objecttolerance="10"
     gridtolerance="10"
     guidetolerance="10"
     inkscape:pageopacity="0"
     inkscape:pageshadow="2"
     inkscape:window-width="1402"
     inkscape:window-height="779"
     id="namedview6"
     showgrid="false"
     inkscape:zoom="12.364686"
     inkscape:cx="7.6157484"
     inkscape:cy="15.638333"
     inkscape:window-x="0"
     inkscape:window-y="0"
     inkscape:window-maximized="0"
     inkscape:current-layer="svg4" />
  <path
     style="color:#000000;text-indent:0;text-decoration:none;text-decoration-line:none;text-decoration-style:solid;text-decoration-color:#000000;text-transform:none;white-space:normal;isolation:auto;mix-blend-mode:normal;solid-color:#000000;fill:#ffffff;stroke-width:1.22801709;color-rendering:auto;image-rendering:auto;shape-rendering:auto"
     d="m 0.04539893,-0.0028425 0.14557624,2.0200071 h 0.004553 L -0.10726989,2.6464745 0.38885392,2.7754442 V 3.0033424 L -0.05486233,3.4656132 0.38885404,3.70905 v 0.1748082 l -0.49146537,0.6448485 0.52058062,0.2278982 v 0.2473215 l -0.44371638,0.4907581 0.56134197,0.2758086 v 0.1489108 l -0.62073707,0.5567969 0.72555197,0.2330777 -0.006824,0.07834 -0.71157664,0.6603868 0.73486884,0.1489109 v 0.1289696 l -0.74418634,0.8248363 h 0.89209114 v 0.344437 L -0.21425084,9.4260579 0.8234166,9.489247 V 9.7521077 L 0.03846951,10.409905 h 0.84201287 v 0.235668 L 0.29817751,11.35646 H 0.9398775 v 0.379399 l -0.86879892,0.493348 0.56832963,0.03535 c 0,0 0.13509476,0.0097 0.26436637,0.05063 0.0642863,0.02046 0.12577812,0.0496 0.15722252,0.07589 0.031794,0.02629 0.031794,0.03147 0.031794,0.04558 v 0.05308 l 0.025039,0.04299 c 0.1968191,0.32113 0.5240745,0.512772 0.8734575,0.512772 h 0.381992 l 0.036336,-0.134667 c 0.2911525,-0.03885 0.5706588,-0.142437 0.7453503,-0.414361 l 0.025039,-0.04299 v -0.05308 c 0,-0.0077 -6.382e-4,-0.01139 0.031794,-0.03794 0.032493,-0.02655 0.09212,-0.05711 0.1572224,-0.07834 0.128107,-0.0518 0.2678602,-0.06474 0.2678602,-0.06474 l 0.5438734,-0.04558 -0.8490006,-0.482989 v -0.379398 h 0.6417 L 3.3888193,10.600512 V 10.364844 H 4.2331615 L 3.4482144,9.7096358 V 9.446776 L 4.4858818,9.3809963 3.4668481,8.7995974 V 8.5030707 H 4.3810669 L 3.6392104,7.6756448 V 7.5491354 L 4.3624332,7.4079938 3.6461981,6.7424273 3.6393734,6.6640873 4.3532794,6.4335994 3.7500114,5.8547896 V 5.7006994 L 4.3206703,5.4287753 3.8548263,4.9626198 V 4.719183 L 4.3789008,4.499054 3.8897646,3.8516159 V 3.6768076 L 4.3311518,3.4333708 3.8897646,2.9710999 V 2.7432017 L 4.3835592,2.6142321 4.0807606,1.9849221 h 0.00455 L 4.2250674,-0.03508492 H 0.04411786 Z M 0.37964197,0.33900486 H 3.8851178 L 3.7896198,1.6727275 H 3.5555332 l 0.349383,0.7510282 -0.3377369,0.090642 V 3.1618352 L 3.7884552,3.3819643 3.5671793,3.4985031 v 0.5114762 l 0.286494,0.376809 -0.3156093,0.135962 V 5.15465 l 0.2142883,0.2097699 -0.3202678,0.15668 v 0.5308993 l 0.2795064,0.2706293 -0.418095,0.134667 0.052291,0.503707 0.3027985,0.2809882 -0.3249261,0.063189 V 7.8645672 L 3.6287872,8.2038248 H 3.1512971 V 9.0506739 L 3.3283178,9.1518038 3.1326633,9.1644545 V 9.9232513 L 3.3026964,10.066982 H 3.0732683 v 0.710888 l 0.1933252,0.235668 H 3.0138732 v 0.931016 l 0.1665391,0.09362 c -0.054154,0.02356 -0.1090075,0.04247 -0.1595515,0.08352 -0.079659,0.065 -0.1572223,0.176103 -0.1572223,0.31336 l 0.027252,-0.09607 c -0.1397534,0.22789 -0.3715107,0.363851 -0.6184081,0.363851 H 2.1587001 l -0.015955,0.05309 H 1.9878518 c -0.2562142,0 -0.4891361,-0.129487 -0.6288893,-0.362565 l 0.027252,0.09608 c 0,-0.138552 -0.074302,-0.255091 -0.1548932,-0.321129 -0.04903,-0.04066 -0.1041166,-0.05529 -0.1572222,-0.07834 l 0.1618807,-0.09103 V 11.067928 H 0.98325937 L 1.1765846,10.832255 V 10.121369 H 0.94482711 L 1.1171894,9.9776364 V 9.2188389 L 0.92153491,9.206149 1.0985557,9.1050192 V 8.2102597 H 0.64319319 L 0.95065021,7.8684123 V 7.3116155 L 0.62572405,7.2468717 0.92619339,6.9749477 0.97394251,6.4699459 0.57098738,6.3404581 0.84350607,6.0957265 V 5.5596479 L 0.51159227,5.3951985 0.72820972,5.1595311 V 4.5328108 L 0.40910661,4.3903744 0.69560064,4.0278091 V 3.5163328 L 0.48014781,3.3997941 0.69560064,3.179665 V 2.5322269 L 0.35204072,2.4411972 0.70957596,1.7005278 H 0.47548937 l -0.095498,-1.3337226 z"
     id="path2"
     inkscape:connector-curvature="0" />
</svg>
